<svg xmlns="http://www.w3.org/2000/svg" fill="none" viewBox="0 0 800 400"><defs><linearGradient id="bg" x1="0" x2="800" y1="0" y2="400"><stop offset="0%" stop-color="#0f172a"/><stop offset="100%" stop-color="#1e293b"/></linearGradient><linearGradient id="barGreen" x1="0" x2="1" y1="0" y2="0"><stop offset="0%" stop-color="#22c55e"/><stop offset="100%" stop-color="#16a34a"/></linearGradient><linearGradient id="barBlue" x1="0" x2="1" y1="0" y2="0"><stop offset="0%" stop-color="#3b82f6"/><stop offset="100%" stop-color="#2563eb"/></linearGradient><linearGradient id="card" x1="0" x2="0" y1="0" y2="1"><stop offset="0%" stop-color="#1e293b"/><stop offset="100%" stop-color="#0f172a"/></linearGradient><marker id="arrow" markerHeight="6" markerWidth="6" orient="auto-start-reverse" refX="9" refY="5" viewBox="0 0 10 10"><path fill="#475569" d="M 0 0 L 10 5 L 0 10 z"/></marker></defs><rect width="800" height="400" fill="url(#bg)" rx="12"/><rect width="760" height="36" x="20" y="16" fill="#1e293b" rx="6"/><circle cx="40" cy="34" r="5" fill="#ef4444"/><circle cx="58" cy="34" r="5" fill="#f59e0b"/><circle cx="76" cy="34" r="5" fill="#22c55e"/><text x="400" y="39" fill="#94a3b8" font-family="system-ui,sans-serif" font-size="13" font-weight="600" text-anchor="middle">IoT Fleet Monitoring - LLM Function Calling Orchestration</text><rect width="480" height="222" x="20" y="64" fill="url(#card)" stroke="#334155" stroke-width="1" rx="8"/><text x="36" y="88" fill="#cbd5e1" font-family="system-ui,sans-serif" font-size="11" font-weight="600">DEVICE STATUS TIMELINE (Last 24h)</text><text x="36" y="118" fill="#94a3b8" font-family="monospace" font-size="11">GPS Status</text><rect width="356" height="18" x="130" y="106" fill="#1a2332" rx="3"/><rect width="90" height="18" x="130" y="106" fill="url(#barGreen)" rx="3"/><rect width="40" height="18" x="220" y="106" fill="#ef4444" opacity=".8"/><rect width="226" height="18" x="260" y="106" fill="url(#barGreen)" rx="3"/><circle cx="240" cy="115" r="7" fill="#ef4444" opacity=".9"/><text x="237" y="119" fill="#fff" font-family="system-ui,sans-serif" font-size="9" font-weight="700">!</text><text x="36" y="148" fill="#94a3b8" font-family="monospace" font-size="11">Camera</text><rect width="356" height="18" x="130" y="136" fill="#1a2332" rx="3"/><rect width="180" height="18" x="130" y="136" fill="url(#barGreen)" rx="3"/><rect width="30" height="18" x="310" y="136" fill="#f59e0b" opacity=".8"/><rect width="146" height="18" x="340" y="136" fill="url(#barGreen)" rx="3"/><text x="36" y="178" fill="#94a3b8" font-family="monospace" font-size="11">CPU Usage</text><rect width="356" height="18" x="130" y="166" fill="#1a2332" rx="3"/><rect width="270" height="18" x="130" y="166" fill="url(#barBlue)" rx="3"/><rect width="30" height="18" x="400" y="166" fill="#ef4444" opacity=".8"/><rect width="56" height="18" x="430" y="166" fill="url(#barBlue)" rx="3"/><circle cx="415" cy="175" r="7" fill="#ef4444" opacity=".9"/><text x="412" y="179" fill="#fff" font-family="system-ui,sans-serif" font-size="9" font-weight="700">!</text><text x="36" y="208" fill="#94a3b8" font-family="monospace" font-size="11">Temperature</text><rect width="356" height="18" x="130" y="196" fill="#1a2332" rx="3"/><rect width="356" height="18" x="130" y="196" fill="url(#barGreen)" rx="3"/><text x="36" y="238" fill="#94a3b8" font-family="monospace" font-size="11">Battery</text><rect width="356" height="18" x="130" y="226" fill="#1a2332" rx="3"/><rect width="320" height="18" x="130" y="226" fill="url(#barGreen)" rx="3"/><rect width="36" height="18" x="450" y="226" fill="#f59e0b" opacity=".6" rx="3"/><text x="130" y="264" fill="#64748b" font-family="monospace" font-size="9">0h</text><text x="219" y="264" fill="#64748b" font-family="monospace" font-size="9">6h</text><text x="308" y="264" fill="#64748b" font-family="monospace" font-size="9">12h</text><text x="397" y="264" fill="#64748b" font-family="monospace" font-size="9">18h</text><text x="470" y="264" fill="#64748b" font-family="monospace" font-size="9">24h</text><rect width="268" height="222" x="512" y="64" fill="url(#card)" stroke="#334155" stroke-width="1" rx="8"/><rect width="268" height="28" x="512" y="64" fill="#1e40af" opacity=".3" rx="8"/><text x="528" y="83" fill="#93c5fd" font-family="system-ui,sans-serif" font-size="11" font-weight="600">LLM-GENERATED REPORT</text><path fill="#60a5fa" d="M750 72 l3 7 l7 3 l-7 3 l-3 7 l-3-7 l-7-3 l7-3z" opacity=".8"/><text x="528" y="110" fill="#f59e0b" font-family="system-ui,sans-serif" font-size="10">2 anomalies detected</text><text x="528" y="132" fill="#cbd5e1" font-family="system-ui,sans-serif" font-size="10">1. GPS signal loss at 04:30-07:15</text><text x="536" y="146" fill="#64748b" font-family="system-ui,sans-serif" font-size="9">Likely cause: tunnel or coverage gap</text><text x="536" y="158" fill="#64748b" font-family="system-ui,sans-serif" font-size="9">Action: verify route path</text><rect width="236" height="1" x="528" y="167" fill="#334155"/><text x="528" y="184" fill="#cbd5e1" font-family="system-ui,sans-serif" font-size="10">2. CPU spike at 16:00-17:00</text><text x="536" y="198" fill="#64748b" font-family="system-ui,sans-serif" font-size="9">Correlates with batch processing</text><text x="536" y="210" fill="#64748b" font-family="system-ui,sans-serif" font-size="9">Action: reschedule to off-peak</text><rect width="236" height="1" x="528" y="219" fill="#334155"/><text x="528" y="236" fill="#22c55e" font-family="system-ui,sans-serif" font-size="10">Fleet health: 94% operational</text><text x="528" y="252" fill="#64748b" font-family="system-ui,sans-serif" font-size="9">48/51 devices fully online</text><text x="528" y="266" fill="#64748b" font-family="system-ui,sans-serif" font-size="9">3 devices require attention</text><rect width="760" height="86" x="20" y="298" fill="url(#card)" stroke="#334155" stroke-width="1" rx="8"/><rect width="110" height="52" x="36" y="314" fill="#1c2a3a" stroke="#f59e0b" stroke-width="1" rx="6"/><text x="91" y="336" fill="#fcd34d" font-family="system-ui,sans-serif" font-size="10" font-weight="600" text-anchor="middle">Elasticsearch</text><text x="91" y="352" fill="#64748b" font-family="monospace" font-size="8" text-anchor="middle">IoT Telemetry</text><path stroke="#475569" stroke-width="1.5" marker-end="url(#arrow)" d="M156 340 L194 340"/><rect width="140" height="60" x="208" y="310" fill="#1e3a5f" stroke="#3b82f6" stroke-width="1" rx="6"/><text x="278" y="330" fill="#93c5fd" font-family="system-ui,sans-serif" font-size="10" font-weight="600" text-anchor="middle">Tool Functions</text><text x="278" y="344" fill="#64748b" font-family="monospace" font-size="8" text-anchor="middle">query_es() | clean()</text><text x="278" y="356" fill="#64748b" font-family="monospace" font-size="8" text-anchor="middle">detect() | format()</text><path stroke="#475569" stroke-width="1.5" marker-end="url(#arrow)" d="M358 334 L404 334"/><path stroke="#475569" stroke-width="1.5" marker-end="url(#arrow)" d="M404 348 L358 348"/><text x="381" y="328" fill="#8b5cf6" font-family="monospace" font-size="7" text-anchor="middle">call</text><text x="381" y="362" fill="#8b5cf6" font-family="monospace" font-size="7" text-anchor="middle">result</text><rect width="140" height="60" x="414" y="310" fill="#3b1764" stroke="#8b5cf6" stroke-width="1" rx="6"/><text x="484" y="330" fill="#c4b5fd" font-family="system-ui,sans-serif" font-size="10" font-weight="600" text-anchor="middle">LLM Orchestrator</text><text x="484" y="344" fill="#64748b" font-family="monospace" font-size="8" text-anchor="middle">Function Calling</text><text x="484" y="356" fill="#64748b" font-family="monospace" font-size="8" text-anchor="middle">Context Mgmt</text><path stroke="#475569" stroke-width="1.5" marker-end="url(#arrow)" d="M564 340 L606 340"/><rect width="148" height="52" x="616" y="314" fill="#14532d" stroke="#22c55e" stroke-width="1" rx="6"/><text x="690" y="336" fill="#86efac" font-family="system-ui,sans-serif" font-size="10" font-weight="600" text-anchor="middle">Daily Report</text><text x="690" y="352" fill="#64748b" font-family="monospace" font-size="8" text-anchor="middle">Insights + Alerts</text><rect width="76" height="18" x="698" y="298" fill="#1e40af" opacity=".4" rx="9"/><text x="736" y="311" fill="#93c5fd" font-family="system-ui,sans-serif" font-size="9" font-weight="600" text-anchor="middle">on GCP</text></svg>