<svg xmlns="http://www.w3.org/2000/svg" width="885" height="563" fill="none" viewBox="0 0 885 563"><path fill="#9CDF02" d="M730.229 300.908C726.646 300.908 723.054 300.009 719.841 298.308L478.911 170.755C477.824 170.179 476.943 169.3 476.365 168.213C475.823 167.194 475.553 166.022 475.587 164.823C475.62 163.624 475.953 162.47 476.551 161.488C477.189 160.439 478.117 159.618 479.234 159.113L626.667 92.4342C629.569 91.1219 632.637 90.4565 635.785 90.4565C639.449 90.4565 643.113 91.3943 646.382 93.1682L880.802 220.392C881.868 220.971 882.733 221.845 883.302 222.92C883.836 223.929 884.103 225.088 884.074 226.272C884.045 227.456 883.722 228.599 883.14 229.577C882.52 230.618 881.615 231.443 880.521 231.962L739.722 298.757C736.713 300.185 733.519 300.908 730.229 300.908Z"/><path fill="#727374" d="M635.785 90.8835C632.69 90.8835 629.674 91.5377 626.821 92.8278L479.388 159.506C478.344 159.978 477.478 160.744 476.884 161.721C476.326 162.638 476.015 163.715 475.984 164.836C475.953 165.956 476.204 167.051 476.71 168.002C477.249 169.015 478.071 169.834 479.087 170.372L720.016 297.926C723.175 299.598 726.706 300.482 730.228 300.482C733.463 300.482 736.603 299.77 739.561 298.367L880.36 231.571C881.381 231.087 882.227 230.318 882.804 229.347C883.347 228.435 883.649 227.368 883.675 226.261C883.702 225.154 883.453 224.072 882.955 223.131C882.425 222.129 881.618 221.314 880.621 220.773L646.202 93.5494C642.988 91.8054 639.386 90.8835 635.785 90.8835ZM635.785 90.0298C639.486 90.0298 643.18 90.9528 646.561 92.7875L880.981 220.011C885.774 222.613 885.595 230.022 880.682 232.352L739.882 299.148C733.413 302.217 726.008 302.05 719.664 298.691L478.735 171.138C473.844 168.549 474.054 160.992 479.079 158.719L626.512 92.0411C629.482 90.6979 632.636 90.0298 635.785 90.0298Z"/><path fill="#9CDF02" d="M272.397 348.944C268.721 349.059 265.014 348.208 261.675 346.482L11.2872 217.086C10.157 216.502 9.23128 215.586 8.61012 214.435C8.02782 213.357 7.72176 212.105 7.72512 210.815C7.72842 209.525 8.04093 208.274 8.62878 207.198C9.25588 206.051 10.1863 205.138 11.3195 204.559L160.827 128.135C163.77 126.631 166.899 125.817 170.129 125.716C173.887 125.598 177.669 126.488 181.067 128.291L424.769 257.541C425.878 258.129 426.787 259.041 427.398 260.179C427.972 261.246 428.276 262.484 428.276 263.758C428.277 265.032 427.976 266.271 427.404 267.341C426.794 268.481 425.887 269.396 424.779 269.989L282.078 346.326C279.028 347.957 275.771 348.838 272.397 348.944Z"/><path fill="#727374" d="M170.139 126.174C166.965 126.273 163.888 127.073 160.995 128.552L11.4873 204.977C10.4284 205.518 9.55996 206.369 8.97561 207.438C8.42714 208.442 8.13559 209.61 8.13246 210.816C8.12937 212.021 8.41486 213.19 8.95819 214.197C9.537 215.268 10.4011 216.123 11.4571 216.669L261.845 346.066C265.128 347.762 268.772 348.599 272.385 348.486C275.703 348.382 278.905 347.516 281.903 345.912L424.604 269.575C425.639 269.021 426.486 268.167 427.054 267.105C427.588 266.107 427.869 264.95 427.868 263.759C427.867 262.568 427.584 261.413 427.049 260.417C426.479 259.357 425.631 258.506 424.595 257.957L180.892 128.705C177.552 126.933 173.833 126.058 170.139 126.174ZM170.117 125.256C173.914 125.137 177.727 126.011 181.241 127.875L424.944 257.126C429.927 259.769 429.933 267.74 424.954 270.404L282.253 346.741C275.696 350.249 268.096 350.307 261.504 346.9L11.1156 217.503C6.03321 214.877 6.05419 206.746 11.1501 204.141L160.658 127.716C163.67 126.177 166.888 125.357 170.117 125.256Z"/><mask id="mask0_557_470" style="mask-type:luminance" width="410" height="212" x="475" y="90" maskUnits="userSpaceOnUse"><path fill="#fff" d="M626.51 92.0449C629.702 90.5999 633.15 89.9179 636.613 90.0461C640.076 90.1744 643.471 91.1099 646.563 92.7876L880.981 220.011C882.056 220.595 882.955 221.494 883.573 222.605C884.191 223.715 884.502 224.991 884.471 226.283C884.44 227.576 884.067 228.833 883.396 229.907C882.725 230.981 881.784 231.829 880.682 232.352L739.883 299.148C736.687 300.664 733.22 301.409 729.726 301.33C726.233 301.251 722.798 300.35 719.664 298.691L478.737 171.138C477.644 170.558 476.729 169.654 476.101 168.533C475.473 167.411 475.158 166.12 475.194 164.812C475.23 163.505 475.616 162.236 476.305 161.156C476.993 160.077 477.957 159.233 479.08 158.723L626.51 92.0449Z"/></mask><g mask="url(#mask0_557_470)"><path stroke="#35345A" stroke-linejoin="round" stroke-miterlimit="10" stroke-width="16" d="M665.763 200.259L724.762 235.453L655.633 275.16"/></g><path fill="#9CDF02" d="M601.439 156.29H579.142H573.571H551.111L562.033 130.431L567.734 143.931L568.151 144.917L568.473 143.891L575.561 121.341L584.196 148.816L584.442 149.6L584.895 148.93L590.68 140.37L601.439 156.29Z"/><path fill="#9CDF02" d="M600.659 155.863L590.68 141.097L584.312 150.521L575.561 122.677L568.205 146.08L562.033 131.465L551.728 155.863H600.659ZM602.219 156.717H550.494L562.033 129.397L568.096 143.754L575.561 120.005L584.573 148.68L590.68 139.642L602.219 156.717Z"/><g filter="url(#filter0_d_557_470)"><path fill="#fff" d="M601.433 156.288H579.136H573.565H551.105L562.027 130.428L567.728 143.928L568.145 144.915L568.468 143.888L575.555 121.339L584.19 148.814L584.437 149.598L584.889 148.928L590.674 140.367L601.433 156.288Z"/><path fill="#fff" d="M600.653 155.861L590.674 141.094L584.306 150.518L575.555 122.675L568.199 146.078L562.027 131.463L551.722 155.861H600.653ZM602.213 156.715H550.488L562.027 129.394L568.091 143.752L575.555 120.003L584.567 148.677L590.674 139.64L602.213 156.715Z"/></g><path fill="#727374" d="M600.659 155.863L590.68 141.097L584.312 150.521L575.561 122.677L568.205 146.08L562.033 131.465L551.728 155.863H600.659ZM602.219 156.717H550.494L562.033 129.397L568.096 143.754L575.561 120.005L584.573 148.68L590.68 139.642L602.219 156.717Z"/><path fill="#9CDF02" d="M641.369 161.413H618.926H613.356H590.814L601.817 122.335L607.518 142.583L607.954 144.131L608.287 142.554L615.345 109.131L623.956 149.907L624.207 151.097L624.702 149.999L630.465 137.208L641.369 161.413Z"/><path fill="#9CDF02" d="M640.735 160.986L630.465 138.189L624.071 152.382L615.346 111.063L608.01 145.803L601.818 123.812L591.351 160.986H640.735ZM642.004 161.839H590.279L601.818 120.859L607.9 142.46L615.346 107.199L624.345 149.813L630.465 136.227L642.004 161.839Z"/><g filter="url(#filter1_d_557_470)"><path fill="#fff" d="M641.367 161.41H618.924H613.354H590.812L601.815 122.333L607.516 142.581L607.952 144.129L608.285 142.552L615.343 109.128L623.954 149.905L624.205 151.095L624.7 149.996L630.463 137.205L641.367 161.41Z"/><path fill="#fff" d="M640.733 160.983L630.463 138.186L624.069 152.379L615.344 111.06L608.008 145.8L601.816 123.809L591.349 160.983H640.733ZM642.002 161.837H590.277L601.816 120.857L607.898 142.457L615.344 107.196L624.343 149.81L630.463 136.224L642.002 161.837Z"/></g><path fill="#727374" d="M640.735 160.986L630.465 138.189L624.071 152.382L615.346 111.063L608.01 145.803L601.818 123.812L591.351 160.986H640.735ZM642.004 161.839H590.279L601.818 120.859L607.9 142.46L615.346 107.199L624.345 149.813L630.465 136.227L642.004 161.839Z"/><path stroke="#707070" stroke-linecap="square" stroke-linejoin="round" stroke-miterlimit="10" stroke-width="50" d="M385.544 35.3331L247.67 110.068L612.671 302.596L360.225 432.726L477.064 505.962"/><path stroke="#707070" stroke-dasharray="10 20" stroke-linecap="square" stroke-miterlimit="10" stroke-width="3" d="M385.544 35.3331L247.67 110.068L612.671 302.596L360.225 432.726L463.655 498.987" opacity=".6"/><path fill="#000" fill-opacity=".28" d="M389.644 406.781L389.644 416.648L400.003 410.128L410.77 421.17L396.219 424.99L388.391 433.668L383.85 424.991L374.72 424.993L373.631 413.556L389.644 406.781Z"/><path fill="#fff" d="M389.193 406.286V416.153L399.552 409.633L410.319 420.675L395.768 424.495L391.854 428.834L387.94 433.173L383.399 424.496L374.269 424.498L373.18 413.061L389.193 406.286Z"/><path fill="#707070" fill-opacity=".45" d="M389.274 407.556L389.253 416.501L398.657 410.565L408.395 420.549L395.196 424.047L388.081 431.933L383.983 424.078L375.707 424.102L374.744 413.737L389.274 407.556Z"/><path fill="#000" d="M730.731 290.757C734.466 290.757 737.495 289.61 737.495 288.196C737.495 286.781 734.466 285.634 730.731 285.634C726.995 285.634 723.967 286.781 723.967 288.196C723.967 289.61 726.995 290.757 730.731 290.757Z"/><path fill="#000" d="M728.344 158.424C732.08 158.424 735.108 157.278 735.108 155.863C735.108 154.449 732.08 153.302 728.344 153.302C724.608 153.302 721.58 154.449 721.58 155.863C721.58 157.278 724.608 158.424 728.344 158.424Z"/><path fill="#9CDF02" d="M730.973 287.769C728.95 287.769 727.457 287.161 726.408 285.909C723.482 282.418 724.296 274.207 725.238 264.699C725.292 264.155 725.347 263.607 725.401 263.055C726.101 255.91 727.678 249.478 728.877 245.341C729.732 242.39 730.522 240.156 730.965 238.964C731.393 240.158 732.154 242.391 732.992 245.338C734.168 249.477 735.739 255.912 736.546 263.061L736.548 263.077C737.702 273.296 738.698 282.121 735.621 285.846C734.552 287.14 733.032 287.769 730.973 287.769Z"/><path fill="#9CDF02" d="M730.972 287.342C732.91 287.342 734.333 286.76 735.322 285.563C736.004 284.737 736.493 283.62 736.815 282.147C737.12 280.755 737.269 279.074 737.27 277.006C737.273 273.059 736.729 268.236 736.152 263.129L736.15 263.113C735.347 255.999 733.784 249.595 732.613 245.475C731.98 243.245 731.391 241.426 730.957 240.159C730.508 241.426 729.898 243.248 729.251 245.482C728.059 249.597 726.492 255.995 725.795 263.099C725.741 263.652 725.687 264.2 725.633 264.744C724.7 274.151 723.895 282.274 726.702 285.624C727.672 286.78 729.068 287.342 730.972 287.342ZM730.972 288.196C722.158 288.196 723.64 276.92 725.004 263.01C726.368 249.1 730.972 237.824 730.972 237.824C730.972 237.824 735.37 249.1 736.94 263.01C738.51 276.92 739.786 288.196 730.972 288.196Z"/><g filter="url(#filter2_d_557_470)"><path fill="#fff" d="M730.973 287.766C728.95 287.766 727.457 287.158 726.408 285.906C723.482 282.415 724.296 274.204 725.238 264.696C725.292 264.152 725.347 263.604 725.401 263.052C726.101 255.907 727.678 249.475 728.877 245.338C729.732 242.387 730.522 240.153 730.965 238.961C731.393 240.155 732.154 242.388 732.992 245.335C734.168 249.474 735.739 255.909 736.546 263.058L736.548 263.074C737.702 273.293 738.698 282.118 735.621 285.843C734.552 287.137 733.032 287.766 730.973 287.766Z"/><path fill="#fff" d="M730.972 287.339C732.91 287.339 734.333 286.757 735.322 285.56C736.004 284.734 736.493 283.617 736.815 282.144C737.12 280.753 737.269 279.071 737.27 277.004C737.273 273.057 736.729 268.233 736.152 263.126L736.15 263.11C735.347 255.997 733.784 249.592 732.613 245.472C731.98 243.243 731.391 241.424 730.957 240.156C730.508 241.423 729.898 243.245 729.251 245.479C728.059 249.594 726.492 255.992 725.795 263.097C725.741 263.649 725.687 264.198 725.633 264.741C724.7 274.148 723.895 282.272 726.702 285.621C727.672 286.777 729.068 287.339 730.972 287.339ZM730.972 288.193C722.158 288.193 723.64 276.917 725.004 263.007C726.368 249.097 730.972 237.821 730.972 237.821C730.972 237.821 735.37 249.097 736.94 263.007C738.51 276.917 739.786 288.193 730.972 288.193Z"/></g><path fill="#727374" d="M730.972 287.342C732.91 287.342 734.333 286.76 735.322 285.563C736.004 284.737 736.493 283.62 736.815 282.147C737.12 280.755 737.269 279.074 737.27 277.006C737.273 273.059 736.729 268.236 736.152 263.129L736.15 263.113C735.347 255.999 733.784 249.595 732.613 245.475C731.98 243.245 731.391 241.426 730.957 240.159C730.508 241.426 729.898 243.248 729.251 245.482C728.059 249.597 726.492 255.995 725.795 263.099C725.741 263.652 725.687 264.2 725.633 264.744C724.7 274.151 723.895 282.274 726.702 285.624C727.672 286.78 729.068 287.342 730.972 287.342ZM730.972 288.196C722.158 288.196 723.64 276.92 725.004 263.01C726.368 249.1 730.972 237.824 730.972 237.824C730.972 237.824 735.37 249.1 736.94 263.01C738.51 276.92 739.786 288.196 730.972 288.196Z"/><path fill="#F9ECE5" d="M649.806 171.223L704.39 186.69L648.896 217.51L596.639 189.251L649.806 171.223Z"/><path fill="#F7D9A7" d="M596.639 193.264L648.896 222.386V217.51L596.639 189.251V193.264Z"/><path fill="#F4BBA3" d="M704.391 190.607L648.896 222.386V217.51L704.391 186.594V190.607Z"/><path fill="#F15F38" d="M648.896 178.258L673.255 137.08L691.188 146.579V187.521L648.896 211.422V178.258Z"/><path fill="#B94A29" d="M648.896 178.258L673.255 137.08L691.188 146.579V149.887L674.632 142.349L654.569 177.651L648.896 181.145V178.258Z"/><path fill="#F8D3C4" d="M648.896 174.737V178.259L652.839 175.778L674.775 139.131L695.167 149.14V145.544L673.255 134.225L648.896 174.737Z"/><path fill="#F48F37" d="M607.568 189.735L648.898 211.42V173.77L607.568 149.887V189.735Z"/><path fill="#E1742C" d="M607.568 159L648.898 180.685V173.77L607.568 148.515V159Z"/><path fill="#F8D3C4" d="M604.385 152.55L649.808 177.65V173.773L604.385 148.515V152.55Z"/><path fill="#985349" d="M659.912 204.759V181.565L669.684 175.67V199.148L659.912 204.759Z"/><path fill="#fff" d="M669.286 176.4L660.309 181.815V204.046L669.286 198.893V176.4ZM670.082 174.941V199.404L659.514 205.472V181.316L670.082 174.941Z"/><path fill="#3494EF" d="M674.629 172.779L685.197 166.2V177.003L674.629 183.275V172.779Z"/><g filter="url(#filter3_d_557_470)"><path fill="#fff" d="M674.629 172.776L685.197 166.197V177L674.629 183.272V172.776Z"/></g><path stroke="#fff" stroke-miterlimit="10" stroke-width="2" d="M674.629 172.779L685.197 166.2V177.003L674.629 183.275V172.779Z"/><path fill="#3494EF" d="M628.474 172.779L617.557 166.2V177.003L628.474 183.275V172.779Z"/><g filter="url(#filter4_d_557_470)"><path fill="#fff" d="M628.474 172.776L617.557 166.197V177L628.474 183.272V172.776Z"/></g><path stroke="#fff" stroke-miterlimit="10" stroke-width="2" d="M628.474 172.779L617.557 166.2V177.003L628.474 183.275V172.779Z"/><path fill="#FBF5DB" d="M629.86 109.123L673.256 134.224L649.808 173.773L604.385 148.515L629.86 109.123Z"/><path fill="#fff" d="M168.989 182.328L254.47 217.503L176.321 260.874L100.832 219.715L168.989 182.328Z"/><path fill="#E5EFF8" d="M100.832 225.373L176.485 267.706V260.822L100.832 219.715V225.373Z"/><path fill="#9DC6ED" d="M254.471 222.976L176.486 267.706V260.844L254.471 217.334V222.976Z"/><path fill="#A2B8C4" d="M177.279 205.602L207.689 169.524L236.166 171.787V218.658L177.279 252.339V205.602Z"/><path fill="#2F4E5D" d="M177.279 206.002L208.804 170.571L236.166 169.524V175.347L211.85 175.551L184.849 206.347L177.279 210.505V206.002Z"/><path fill="#EFF4F6" d="M177.279 200.43V205.382L182.423 201.897L210.934 172L236.166 171.669V167.816L208.803 168.706L177.279 200.43Z"/><path fill="#E4EFF5" d="M112.174 218.86L177.282 252.338V199.234L112.174 165.061V218.86Z"/><path fill="#A2B8C4" d="M112.174 175.856L177.282 210.505V200.887L112.174 169.524V175.856Z"/><path fill="#EFF4F6" d="M112.174 170.642L177.282 206.235V200.771L112.174 164.96V170.642Z"/><path fill="#985349" d="M192.002 243.096V210.279L206.326 201.835V235.059L192.002 243.096Z"/><path fill="#fff" d="M205.927 202.556L192.399 210.531V242.391L205.927 234.801V202.556ZM206.723 201.113V235.318L191.604 243.801V210.026L206.723 201.113Z"/><path fill="#1272CB" d="M213.488 211.495V197.766L227.812 189.04V203.177L213.488 211.495Z"/><path fill="#fff" d="M227.414 189.773L213.886 198.015V210.779L227.414 202.923V189.773ZM228.209 188.307V203.431L213.09 212.212V197.518L228.209 188.307Z"/><path fill="#fff" d="M145.818 134.61L209.908 167.982L177.202 201.113L112.174 164.96L145.818 134.61Z"/><path fill="#E4EFF5" d="M145.58 134.602L208.569 168.667H236.169L169.202 134.381L145.58 134.602Z"/><path fill="#fff" d="M270.843 236.969L356.323 272.143L278.175 315.514L202.686 274.355L270.843 236.969Z"/><path fill="#E5EFF8" d="M202.686 280.014L278.339 322.347V315.463L202.686 274.355V280.014Z"/><path fill="#9DC6ED" d="M356.325 277.617L278.34 322.347V315.484L356.325 271.975V277.617Z"/><path fill="#A2B8C4" d="M279.133 260.243L309.543 224.165L338.019 226.427V273.299L279.133 306.979V260.243Z"/><path fill="#2F4E5D" d="M279.133 260.642L310.658 225.212L338.019 224.165V229.987L313.703 230.191L286.702 260.987L279.133 265.145V260.642Z"/><path fill="#EFF4F6" d="M279.133 255.071V260.022L284.277 256.537L312.787 226.641L338.019 226.31V222.457L310.657 223.347L279.133 255.071Z"/><path fill="#E4EFF5" d="M214.027 273.501L279.135 306.978V253.875L214.027 219.702V273.501Z"/><path fill="#A2B8C4" d="M214.027 230.496L279.135 265.145V255.527L214.027 224.165V230.496Z"/><path fill="#EFF4F6" d="M214.027 225.282L279.135 260.875V255.411L214.027 219.601V225.282Z"/><path fill="#985349" d="M293.855 297.737V264.919L308.179 256.475V289.7L293.855 297.737Z"/><path fill="#fff" d="M307.781 257.197L294.253 265.172V297.032L307.781 289.442V257.197ZM308.577 255.754V289.959L293.457 298.442V264.667L308.577 255.754Z"/><path fill="#1272CB" d="M315.342 266.136V252.407L329.666 243.681V257.818L315.342 266.136Z"/><path fill="#fff" d="M329.267 244.414L315.739 252.656V265.42L329.267 257.563V244.414ZM330.063 242.947V258.072L314.943 266.853V252.159L330.063 242.947Z"/><path fill="#fff" d="M247.671 189.251L311.761 222.623L279.055 255.754L214.027 219.6L247.671 189.251Z"/><path fill="#E4EFF5" d="M247.434 189.243L310.422 223.308H338.022L271.056 189.021L247.434 189.243Z"/><path fill="#2A4E79" d="M345.979 352.514L378.605 372.48L447.995 329.222L418.552 308.402L345.979 352.514Z" opacity=".409"/><path fill="#0B101A" d="M385.115 363.578C383.073 362.313 383.126 358.118 385.23 354.208C387.334 350.298 390.694 348.152 392.736 349.417L394.437 350.471L394.444 350.458L396.908 351.984C398.949 353.248 398.898 357.444 396.794 361.353C394.69 365.263 391.329 367.41 389.287 366.145L387.586 365.091L387.579 365.104L385.115 363.578Z"/><path fill="#3D425F" d="M389.448 366.287C391.081 367.299 394.062 365.737 396.479 364.193C397.549 363.511 399.241 362.422 399.886 361.223C401.991 357.313 401.116 354.44 398.759 352.98C396.403 351.52 392.786 353.506 390.682 357.417C388.578 361.327 387.091 364.827 389.448 366.287Z"/><path fill="#0B101A" d="M420.129 342.234C418.087 340.969 418.139 336.774 420.243 332.864C422.347 328.954 425.707 326.808 427.749 328.073L429.451 329.127L429.458 329.114L431.922 330.64C433.963 331.904 433.911 336.1 431.807 340.01C429.703 343.919 426.343 346.066 424.301 344.801L422.6 343.747L422.593 343.76L420.129 342.234Z"/><path fill="#3D425F" d="M426.751 345.206C430.459 343.72 431.832 341.982 433.766 340.902C435.7 339.822 435.665 332.637 433.308 331.177C430.951 329.717 427.335 331.704 425.231 335.614C423.127 339.525 423.044 346.692 426.751 345.206Z"/><path fill="#DDE3F8" d="M427.362 342.489C428.577 343.242 430.472 342.161 431.594 340.076C432.716 337.99 432.641 335.69 431.426 334.937C430.211 334.185 428.317 335.265 427.195 337.351C426.072 339.436 426.147 341.737 427.362 342.489Z"/><path fill="#DDE3F8" d="M392.817 364.291C394.032 365.043 395.927 363.963 397.049 361.877C398.171 359.792 398.096 357.491 396.881 356.739C395.667 355.986 393.772 357.067 392.65 359.152C391.527 361.238 391.603 363.538 392.817 364.291Z"/><path fill="#393D4D" d="M404.068 327.756V352.228L440.673 329.58V305.271L404.068 327.756Z"/><path fill="#D8D8D8" d="M380.992 308.12V332.591L417.597 309.944V285.634L380.992 308.12Z"/><path fill="#D8D8D8" d="M380.992 308.12L404.069 324.341L440.674 301.856L417.597 285.634L380.992 308.12Z"/><path fill="#A8B4BC" d="M416.116 294.45L419.476 295.246L423.329 300.235L420.041 305.315L416.117 308.403L412.66 305.315H407.213C406.733 304.226 406.433 303.055 406.329 301.856C406.481 300.307 406.778 298.779 407.214 297.294L416.116 294.45Z"/><g filter="url(#filter5_d_557_470)"><path fill="#fff" d="M416.116 294.455L419.476 295.252L423.329 300.241L420.041 305.321L416.117 308.409L412.66 305.321H407.213C406.733 304.232 406.433 303.061 406.329 301.862C406.481 300.313 406.778 298.785 407.214 297.299L416.116 294.455Z"/></g><path fill="#A8B4BC" d="M404.068 324.341V348.813L440.673 326.165V301.856L404.068 324.341Z"/><path fill="#85939C" d="M415.313 320.916L418.672 321.712L422.526 326.701L419.237 331.781L415.313 334.869L411.857 329.22C411.857 329.22 405.527 332.33 405.528 330.881C405.68 329.334 405.975 327.806 406.411 326.322L415.313 320.916Z"/><g filter="url(#filter6_d_557_470)"><path fill="#fff" d="M415.313 320.922L418.672 321.718L422.526 326.707L419.237 331.787L415.313 334.875L411.857 329.226C411.857 329.226 405.527 332.336 405.528 330.887C405.68 329.34 405.975 327.812 406.411 326.328L415.313 320.922Z"/></g><path fill="#F69B5E" d="M378.337 303.563L359.896 315.631L353.139 340.07V352.07L378.603 367.595V355.43L386.895 331.08L404.067 320.801L378.337 303.563Z"/><path fill="#DB3B1B" d="M404.068 351.926L378.604 367.595V355.194L386.895 330.954L404.068 320.639V351.926Z"/><path fill="#E6F1FB" d="M362.301 318.931L384.973 332.887L379.125 348.813L357.121 335.063L362.301 318.931Z"/><path fill="#E8F2FB" d="M402.477 323.2V335.985L391.645 342.701L389.385 347.885L381.787 352.228L387.234 334.239C387.597 333.042 388.357 332.03 389.371 331.396L402.477 323.2Z"/><path fill="#000" d="M355.446 321.957C355.557 321.617 355.764 321.322 356.039 321.114C356.313 320.905 356.641 320.793 356.977 320.793C357.107 320.793 357.235 320.827 357.351 320.891C357.467 320.955 357.566 321.048 357.641 321.162C357.717 321.276 357.765 321.407 357.784 321.546C357.802 321.684 357.789 321.825 357.746 321.957L354.971 330.424C354.859 330.764 354.652 331.058 354.378 331.267C354.104 331.475 353.776 331.587 353.44 331.587C353.309 331.587 353.181 331.554 353.066 331.49C352.95 331.425 352.85 331.332 352.775 331.218C352.7 331.105 352.651 330.973 352.633 330.835C352.615 330.696 352.628 330.555 352.671 330.424L355.446 321.957Z"/><path fill="#fff" d="M353.139 345.741L355.043 347.119C355.41 347.385 355.711 347.743 355.919 348.162C356.127 348.581 356.236 349.048 356.237 349.523C356.237 349.672 356.2 349.819 356.129 349.948C356.058 350.076 355.955 350.181 355.832 350.251C355.709 350.322 355.571 350.355 355.432 350.347C355.293 350.339 355.158 350.29 355.043 350.206L353.139 348.824V345.741Z"/><path fill="#fff" d="M375.754 361.252C375.754 361.087 375.793 360.923 375.867 360.778C375.941 360.632 376.048 360.509 376.178 360.419C376.308 360.329 376.457 360.276 376.612 360.264C376.766 360.252 376.921 360.282 377.061 360.351L378.605 361.107V364.191L377.061 363.435C376.671 363.244 376.341 362.937 376.109 362.55C375.877 362.163 375.754 361.712 375.754 361.252Z"/><path stroke="#3D425F" stroke-linecap="round" stroke-miterlimit="10" stroke-width="4" d="M361.064 352.227L371.783 358.857"/><path fill="#000" d="M387.663 336.471C387.774 336.13 387.981 335.836 388.256 335.627C388.53 335.419 388.858 335.307 389.194 335.307C389.324 335.307 389.452 335.34 389.568 335.405C389.683 335.469 389.783 335.562 389.858 335.676C389.934 335.79 389.982 335.921 390 336.06C390.018 336.198 390.005 336.339 389.962 336.471L387.187 344.937C387.076 345.277 386.869 345.572 386.595 345.78C386.32 345.989 385.993 346.101 385.656 346.101C385.526 346.101 385.398 346.067 385.282 346.003C385.167 345.939 385.067 345.846 384.992 345.732C384.917 345.618 384.868 345.487 384.85 345.348C384.832 345.21 384.845 345.069 384.888 344.937L387.663 336.471Z"/><path fill="#000" d="M364.354 319.785L367.927 322.346L370.329 325.888V333.445L374.276 332.591L371.491 337.988L373.019 333.562L369.656 334.772L368.861 325.77L364.354 319.785Z"/><path fill="#0B101A" d="M466.931 340.275V343.007C466.931 345.27 463.725 347.105 459.769 347.105C455.814 347.105 452.607 345.27 452.607 343.007V338.397C452.607 336.133 455.814 334.299 459.769 334.299C463.725 334.299 466.931 336.133 466.931 338.397V340.275Z"/><path fill="#DDE3F8" d="M466.931 337.714C466.931 335.356 463.725 333.445 459.769 333.445C455.814 333.445 452.607 335.356 452.607 337.714C452.607 340.071 455.814 341.982 459.769 341.982C463.725 341.982 466.931 340.071 466.931 337.714Z"/><path stroke="#3D425F" stroke-miterlimit="10" stroke-width="2" d="M466.135 337.714C466.135 335.828 463.284 334.299 459.768 334.299C456.253 334.299 453.402 335.828 453.402 337.714C453.402 339.6 456.253 341.129 459.768 341.129C463.284 341.129 466.135 339.6 466.135 337.714Z"/><path fill="#3D425F" d="M464.545 338.141C464.545 336.963 462.408 336.007 459.771 336.007C457.134 336.007 454.996 336.963 454.996 338.141C454.996 339.32 457.134 340.275 459.771 340.275C462.408 340.275 464.545 339.32 464.545 338.141Z"/><path fill="#DDE3F8" d="M463.349 338.995C463.349 338.052 461.746 337.288 459.768 337.288C457.791 337.288 456.188 338.052 456.188 338.995C456.188 339.938 457.791 340.702 459.768 340.702C461.746 340.702 463.349 339.938 463.349 338.995Z"/><path fill="#8E6662" d="M731.926 116.59H724.764V155.863H731.926V116.59Z"/><path fill="#56A64E" d="M728.342 102.076L749.429 147.326H707.254L728.342 102.076Z"/><g filter="url(#filter7_d_557_470)"><path fill="#fff" d="M728.336 102.074L749.423 147.323H707.248L728.336 102.074Z"/></g><path fill="#68C15F" d="M728.347 87.5627L748.639 131.104H708.055L728.347 87.5627Z"/><g filter="url(#filter8_d_557_470)"><path fill="#fff" d="M728.343 87.56L748.635 131.102H708.051L728.343 87.56Z"/></g><path fill="#000" d="M576.35 202.82C580.086 202.82 583.114 201.673 583.114 200.259C583.114 198.844 580.086 197.697 576.35 197.697C572.614 197.697 569.586 198.844 569.586 200.259C569.586 201.673 572.614 202.82 576.35 202.82Z"/><path fill="#9CDF02" d="M576.596 199.831C574.573 199.831 573.08 199.223 572.031 197.972C569.105 194.481 569.919 186.269 570.861 176.761C570.915 176.218 570.97 175.67 571.024 175.117C571.724 167.972 573.301 161.541 574.5 157.404C575.355 154.453 576.145 152.218 576.589 151.026C577.016 152.22 577.777 154.453 578.615 157.4C579.791 161.54 581.363 167.974 582.169 175.124L582.171 175.14C583.325 185.358 584.321 194.184 581.244 197.909C580.175 199.202 578.655 199.831 576.596 199.831Z"/><path fill="#9CDF02" d="M576.595 199.405C578.533 199.405 579.956 198.823 580.945 197.626C581.627 196.8 582.116 195.682 582.438 194.21C582.743 192.818 582.892 191.137 582.893 189.069C582.896 185.122 582.352 180.298 581.775 175.191L581.773 175.175C580.97 168.062 579.407 161.657 578.236 157.537C577.603 155.308 577.014 153.489 576.58 152.222C576.131 153.489 575.522 155.31 574.874 157.544C573.682 161.66 572.115 168.057 571.418 175.162C571.364 175.715 571.31 176.263 571.256 176.807C570.323 186.213 569.518 194.337 572.325 197.686C573.295 198.843 574.691 199.405 576.595 199.405ZM576.595 200.258C567.781 200.258 569.263 188.982 570.627 175.073C571.991 161.163 576.595 149.887 576.595 149.887C576.595 149.887 580.993 161.163 582.563 175.073C584.133 188.982 585.41 200.258 576.595 200.258Z"/><g filter="url(#filter9_d_557_470)"><path fill="#fff" d="M576.59 199.829C574.567 199.829 573.074 199.221 572.025 197.969C569.099 194.478 569.913 186.267 570.855 176.759C570.909 176.215 570.964 175.667 571.018 175.115C571.718 167.97 573.295 161.538 574.494 157.401C575.349 154.45 576.139 152.216 576.583 151.024C577.01 152.218 577.771 154.451 578.609 157.398C579.785 161.537 581.357 167.972 582.164 175.121L582.165 175.137C583.319 185.356 584.315 194.181 581.238 197.906C580.169 199.2 578.649 199.829 576.59 199.829Z"/><path fill="#fff" d="M576.589 199.402C578.527 199.402 579.95 198.82 580.939 197.623C581.621 196.797 582.11 195.68 582.432 194.207C582.737 192.816 582.886 191.134 582.888 189.067C582.89 185.12 582.346 180.296 581.769 175.189L581.767 175.173C580.965 168.059 579.401 161.655 578.231 157.535C577.597 155.306 577.008 153.487 576.574 152.219C576.125 153.486 575.516 155.308 574.869 157.542C573.676 161.657 572.109 168.055 571.412 175.159C571.358 175.712 571.304 176.261 571.25 176.804C570.317 186.211 569.512 194.335 572.32 197.684C573.289 198.84 574.685 199.402 576.589 199.402ZM576.589 200.256C567.775 200.256 569.257 188.98 570.621 175.07C571.985 161.16 576.589 149.884 576.589 149.884C576.589 149.884 580.987 161.16 582.557 175.07C584.128 188.98 585.404 200.256 576.589 200.256Z"/></g><path fill="#727374" d="M576.595 199.405C578.533 199.405 579.956 198.823 580.945 197.626C581.627 196.8 582.116 195.682 582.438 194.21C582.743 192.818 582.892 191.137 582.893 189.069C582.896 185.122 582.352 180.298 581.775 175.191L581.773 175.175C580.97 168.062 579.407 161.657 578.236 157.537C577.603 155.308 577.014 153.489 576.58 152.222C576.131 153.489 575.522 155.31 574.874 157.544C573.682 161.66 572.115 168.057 571.418 175.162C571.364 175.715 571.31 176.263 571.256 176.807C570.323 186.213 569.518 194.337 572.325 197.686C573.295 198.843 574.691 199.405 576.595 199.405ZM576.595 200.258C567.781 200.258 569.263 188.982 570.627 175.073C571.991 161.163 576.595 149.887 576.595 149.887C576.595 149.887 580.993 161.163 582.563 175.073C584.133 188.982 585.41 200.258 576.595 200.258Z"/><path fill="url(#paint0_linear_557_470)" d="M479.67 386.371H513.156L511.968 416.147C511.927 417.152 511.652 418.129 511.166 418.988C510.681 419.848 510.001 420.562 509.19 421.065L500.789 426.273C499.424 427.12 497.874 427.563 496.297 427.558C494.721 427.552 493.174 427.098 491.814 426.241L483.604 421.072C482.803 420.566 482.132 419.853 481.653 418.997C481.174 418.141 480.903 417.171 480.864 416.174L479.67 386.371Z"/><path fill="#fff" d="M499.33 411.374C499.245 411.225 499.2 411.053 499.2 410.878C499.2 410.702 499.245 410.531 499.33 410.381L499.967 408.819L499.16 408.776L501.675 407.376L502.931 409.086L502.122 409.016L500.886 412.069C500.779 412.288 500.724 412.531 500.724 412.779C500.724 413.026 500.779 413.269 500.886 413.488L499.33 411.374ZM501.177 413.301C501.089 413.134 501.044 412.945 501.044 412.753C501.044 412.562 501.089 412.373 501.177 412.206L501.767 410.794L504.346 409.414V412.146L502.073 413.357C501.93 413.438 501.771 413.483 501.61 413.487C501.529 413.49 501.449 413.475 501.375 413.443C501.3 413.411 501.233 413.362 501.177 413.301ZM505.288 410.187L506.514 407.01V408.093L507.867 407.303L506.703 405.541L508.777 402.789C509.27 403.497 509.865 404.42 509.865 404.42C509.957 404.598 510.006 404.799 510.006 405.003C510.006 405.206 509.957 405.407 509.865 405.585C509.826 405.682 509.783 405.777 509.734 405.869C509.84 405.702 509.93 405.524 510.002 405.337L508.486 409.264C508.342 409.66 508.079 409.992 507.738 410.208L506.513 410.922V411.961L505.288 410.187ZM501.046 406.655C501.046 406.655 502.096 404.016 502.353 403.397C502.508 403.021 502.771 402.708 503.103 402.502L506.232 400.751C505.744 401.043 505.366 401.508 505.16 402.066C504.86 402.782 503.231 406.865 503.231 406.865L501.046 406.655ZM505.632 404.349L505.033 403.555L505.611 402.096C505.787 401.655 506.086 401.283 506.468 401.032C506.811 400.861 507.132 400.875 507.303 401.117C507.446 401.338 507.603 401.547 507.774 401.743L508.589 400.751L507.325 403.922L504.817 405.336L505.632 404.349Z"/><path fill="url(#paint1_linear_557_470)" d="M479.67 386.371H513.156L512.918 393.731L496.293 403.373L479.914 393.731L479.67 386.371Z"/><path fill="url(#paint2_linear_557_470)" d="M476.57 387.025C476.57 386.388 476.806 385.777 477.226 385.327C477.646 384.876 478.215 384.623 478.809 384.623H514.036C514.629 384.623 515.199 384.876 515.618 385.327C516.038 385.777 516.274 386.388 516.274 387.025C516.274 387.75 516.09 388.462 515.743 389.084C515.395 389.706 514.896 390.215 514.299 390.556L497.863 399.953C497.376 400.232 496.832 400.376 496.281 400.375C495.729 400.373 495.186 400.225 494.701 399.943L478.539 390.568C477.944 390.223 477.446 389.711 477.1 389.087C476.753 388.464 476.57 387.751 476.57 387.025Z"/><path fill="#F8DD77" d="M494.194 377.66C495.533 377.079 497.029 377.079 498.368 377.66L513.849 384.366C514.046 384.451 514.216 384.595 514.34 384.781C514.463 384.967 514.534 385.187 514.545 385.414C514.555 385.642 514.505 385.868 514.399 386.066C514.294 386.264 514.138 386.426 513.95 386.532L498.87 395.022C498.071 395.472 497.183 395.707 496.281 395.707C495.379 395.707 494.491 395.472 493.692 395.022L478.615 386.534C478.427 386.428 478.271 386.266 478.165 386.068C478.06 385.87 478.01 385.644 478.02 385.416C478.031 385.188 478.102 384.969 478.225 384.783C478.348 384.597 478.519 384.453 478.716 384.367L494.194 377.66Z"/><path fill="#F9CC27" d="M494.194 379.769C495.532 379.189 497.029 379.189 498.368 379.769L508.98 384.369C509.177 384.455 509.347 384.599 509.471 384.785C509.594 384.97 509.665 385.19 509.676 385.418C509.686 385.646 509.636 385.872 509.53 386.07C509.425 386.268 509.269 386.43 509.081 386.536L498.87 392.286C498.071 392.736 497.183 392.971 496.281 392.971C495.38 392.971 494.491 392.736 493.693 392.286L483.481 386.537C483.293 386.431 483.137 386.269 483.032 386.071C482.926 385.873 482.876 385.647 482.886 385.419C482.897 385.191 482.968 384.971 483.091 384.785C483.215 384.599 483.385 384.455 483.582 384.37L494.194 379.769Z"/><path fill="url(#paint3_linear_557_470)" d="M453.41 400.031H486.897L485.708 429.808C485.668 430.812 485.392 431.789 484.907 432.648C484.421 433.508 483.742 434.222 482.931 434.725L474.529 439.933C473.164 440.78 471.614 441.223 470.038 441.218C468.461 441.212 466.914 440.758 465.554 439.901L457.344 434.732C456.543 434.226 455.872 433.513 455.393 432.657C454.915 431.802 454.643 430.831 454.604 429.834L453.41 400.031Z"/><path fill="#fff" d="M473.061 426.045C472.976 425.896 472.931 425.724 472.931 425.549C472.931 425.374 472.976 425.202 473.061 425.052L473.698 423.49L472.891 423.447L475.405 422.047L476.662 423.757L475.852 423.687L474.617 426.74C474.51 426.959 474.454 427.203 474.454 427.45C474.454 427.697 474.51 427.94 474.617 428.159L473.061 426.045ZM474.907 427.972C474.82 427.805 474.774 427.616 474.774 427.424C474.774 427.233 474.82 427.044 474.907 426.877L475.498 425.465L478.077 424.085V426.817L475.803 428.028C475.66 428.109 475.502 428.154 475.34 428.158C475.26 428.161 475.18 428.146 475.105 428.114C475.031 428.082 474.963 428.033 474.907 427.972ZM479.018 424.858L480.244 421.681V422.764L481.597 421.974L480.434 420.212L482.507 417.46C483 418.168 483.595 419.091 483.595 419.091C483.688 419.269 483.736 419.47 483.736 419.674C483.736 419.877 483.688 420.078 483.595 420.256C483.557 420.353 483.513 420.448 483.465 420.54C483.571 420.373 483.661 420.195 483.733 420.008L482.217 423.936C482.073 424.331 481.809 424.663 481.469 424.879L480.243 425.594V426.632L479.018 424.858ZM474.777 421.326C474.777 421.326 475.826 418.687 476.083 418.069C476.239 417.692 476.501 417.379 476.834 417.173L479.963 415.422C479.475 415.714 479.096 416.179 478.891 416.737C478.591 417.453 476.962 421.536 476.962 421.536L474.777 421.326ZM479.363 419.02L478.763 418.226L479.341 416.767C479.518 416.326 479.817 415.954 480.198 415.703C480.541 415.532 480.863 415.546 481.034 415.788C481.176 416.009 481.334 416.218 481.505 416.414L482.32 415.422L481.055 418.593L478.548 420.007L479.363 419.02Z"/><path fill="url(#paint4_linear_557_470)" d="M453.41 400.031H486.897L486.658 407.391L470.033 417.033L453.654 407.391L453.41 400.031Z"/><path fill="url(#paint5_linear_557_470)" d="M450.311 400.685C450.311 400.048 450.546 399.437 450.966 398.987C451.386 398.536 451.955 398.283 452.549 398.283H487.776C488.37 398.283 488.939 398.536 489.359 398.987C489.778 399.437 490.014 400.048 490.014 400.685C490.014 401.41 489.831 402.122 489.483 402.744C489.135 403.366 488.636 403.875 488.039 404.216L471.603 413.613C471.116 413.892 470.572 414.037 470.021 414.035C469.469 414.033 468.926 413.885 468.441 413.603L452.279 404.228C451.684 403.883 451.187 403.371 450.84 402.747C450.494 402.124 450.311 401.411 450.311 400.685Z"/><path fill="#8CE583" d="M467.934 391.32C469.273 390.74 470.77 390.74 472.108 391.32L487.589 398.026C487.786 398.111 487.957 398.255 488.08 398.441C488.203 398.627 488.274 398.847 488.285 399.074C488.295 399.302 488.245 399.528 488.14 399.727C488.034 399.925 487.878 400.086 487.69 400.192L472.61 408.682C471.811 409.132 470.923 409.367 470.021 409.367C469.119 409.367 468.231 409.132 467.433 408.682L452.355 400.194C452.167 400.088 452.011 399.926 451.906 399.728C451.8 399.53 451.75 399.304 451.76 399.076C451.771 398.848 451.842 398.629 451.965 398.443C452.089 398.257 452.259 398.113 452.456 398.028L467.934 391.32Z"/><path fill="#73CF69" d="M467.934 393.429C469.273 392.849 470.769 392.849 472.108 393.429L482.72 398.029C482.917 398.115 483.088 398.259 483.211 398.445C483.334 398.631 483.405 398.85 483.416 399.078C483.426 399.306 483.376 399.532 483.271 399.73C483.165 399.929 483.009 400.09 482.821 400.196L472.61 405.946C471.811 406.396 470.923 406.631 470.021 406.631C469.12 406.631 468.232 406.396 467.433 405.946L457.221 400.197C457.033 400.091 456.877 399.929 456.772 399.731C456.666 399.533 456.616 399.307 456.627 399.079C456.637 398.851 456.708 398.631 456.832 398.445C456.955 398.26 457.125 398.115 457.322 398.03L467.934 393.429Z"/><path fill="#9CDF02" d="M825.191 210.077H802.748H797.178H774.637L785.639 171L791.34 191.248L791.776 192.796L792.109 191.219L799.167 157.795L807.778 198.572L808.03 199.762L808.524 198.663L814.287 185.872L825.191 210.077Z"/><path fill="#9CDF02" d="M824.557 209.65L814.287 186.853L807.893 201.046L799.168 159.727L791.832 194.467L785.64 172.476L775.173 209.65H824.557ZM825.826 210.503H774.102L785.64 169.523L791.722 191.124L799.168 155.863L808.167 198.477L814.287 184.891L825.826 210.503Z"/><g filter="url(#filter10_d_557_470)"><path fill="#fff" d="M825.185 210.074H802.742H797.172H774.631L785.633 170.997L791.335 191.245L791.77 192.793L792.103 191.216L799.162 157.793L807.772 198.569L808.024 199.759L808.519 198.66L814.281 185.87L825.185 210.074Z"/><path fill="#fff" d="M824.552 209.647L814.282 186.85L807.888 201.043L799.162 159.724L791.826 194.464L785.634 172.473L775.167 209.647H824.552ZM825.82 210.501H774.096L785.634 169.521L791.716 191.121L799.162 155.861L808.161 198.475L814.282 184.888L825.82 210.501Z"/></g><path fill="#727374" d="M824.557 209.65L814.287 186.853L807.893 201.046L799.168 159.727L791.832 194.467L785.64 172.476L775.173 209.65H824.557ZM825.826 210.503H774.102L785.64 169.523L791.722 191.124L799.168 155.863L808.167 198.477L814.287 184.891L825.826 210.503Z"/><path fill="#9CDF02" d="M783.813 254.473H767.733H763.754H747.736L755.399 240.379L758.827 246.684L759.273 247.504L759.549 246.602L764.948 228.948L770.656 247.612L770.966 248.624L771.394 247.663L776.089 237.107L783.813 254.473Z"/><path fill="#9CDF02" d="M783.182 254.046L776.089 238.098L770.897 249.769L764.948 230.317L759.375 248.539L755.399 241.226L748.428 254.046H783.182ZM784.444 254.899H747.043L755.399 239.532L759.17 246.469L764.948 227.579L771.034 247.479L776.089 236.116L784.444 254.899Z"/><g filter="url(#filter11_d_557_470)"><path fill="#fff" d="M783.812 254.47H767.732H763.752H747.734L755.397 240.376L758.825 246.681L759.271 247.501L759.547 246.599L764.946 228.945L770.655 247.609L770.964 248.621L771.392 247.66L776.087 237.105L783.812 254.47Z"/><path fill="#fff" d="M783.18 254.043L776.087 238.096L770.895 249.767L764.946 230.315L759.373 248.537L755.397 241.224L748.426 254.043H783.18ZM784.442 254.897H747.041L755.397 239.529L759.168 246.466L764.946 227.576L771.032 247.476L776.087 236.114L784.442 254.897Z"/></g><path fill="#727374" d="M783.182 254.046L776.089 238.098L770.897 249.769L764.948 230.317L759.375 248.539L755.399 241.226L748.428 254.046H783.182ZM784.444 254.899H747.043L755.399 239.532L759.17 246.469L764.948 227.579L771.034 247.479L776.089 236.116L784.444 254.899Z"/><path fill="#9CDF02" d="M666.832 232.275H644.389H638.818H616.277L627.28 193.197L632.981 213.445L633.417 214.993L633.75 213.416L640.808 179.993L649.419 220.769L649.67 221.959L650.165 220.861L655.927 208.07L666.832 232.275Z"/><path fill="#9CDF02" d="M666.198 231.848L655.928 209.051L649.534 223.244L640.809 181.925L633.473 216.665L627.281 194.674L616.814 231.848H666.198ZM667.467 232.701H615.742L627.281 191.721L633.363 213.322L640.809 178.061L649.808 220.675L655.928 207.089L667.467 232.701Z"/><g filter="url(#filter12_d_557_470)"><path fill="#fff" d="M666.832 232.272H644.389H638.818H616.277L627.28 193.195L632.981 213.443L633.417 214.991L633.75 213.414L640.808 179.99L649.419 220.767L649.67 221.957L650.165 220.858L655.927 208.067L666.832 232.272Z"/><path fill="#fff" d="M666.198 231.845L655.928 209.048L649.534 223.241L640.809 181.922L633.473 216.662L627.281 194.671L616.814 231.845H666.198ZM667.467 232.699H615.742L627.281 191.719L633.363 213.319L640.809 178.058L649.808 220.672L655.928 207.086L667.467 232.699Z"/></g><path fill="#727374" d="M666.198 231.848L655.928 209.051L649.534 223.244L640.809 181.925L633.473 216.665L627.281 194.674L616.814 231.848H666.198ZM667.467 232.701H615.742L627.281 191.721L633.363 213.322L640.809 178.061L649.808 220.675L655.928 207.089L667.467 232.701Z"/><path fill="#4FA646" d="M719.194 100.369L723.969 110.614H714.42L719.194 100.369Z"/><g filter="url(#filter13_d_557_470)"><path fill="#fff" d="M719.189 100.366L723.963 110.612H714.414L719.189 100.366Z"/></g><path fill="#419A38" d="M719.989 134.519L724.764 144.764H715.215L719.989 134.519Z"/><g filter="url(#filter14_d_557_470)"><path fill="#fff" d="M719.984 134.517L724.758 144.762H715.209L719.984 134.517Z"/></g><path fill="#091E8C" d="M530.363 313.019C533.659 313.019 536.331 311.872 536.331 310.458C536.331 309.043 533.659 307.896 530.363 307.896C527.067 307.896 524.395 309.043 524.395 310.458C524.395 311.872 527.067 313.019 530.363 313.019Z"/><path fill="#091E8C" d="M403.675 249.777C406.971 249.777 409.643 248.63 409.643 247.215C409.643 245.801 406.971 244.654 403.675 244.654C400.379 244.654 397.707 245.801 397.707 247.215C397.707 248.63 400.379 249.777 403.675 249.777Z"/><path fill="#091E8C" d="M631.261 369.303C634.557 369.303 637.229 368.156 637.229 366.742C637.229 365.327 634.557 364.18 631.261 364.18C627.965 364.18 625.293 365.327 625.293 366.742C625.293 368.156 627.965 369.303 631.261 369.303Z"/><path stroke="#fff" stroke-miterlimit="10" stroke-width="3" d="M630.895 317.552C627.203 314.492 627.395 328.281 592.395 317.552C574.895 310.042 569.839 308.19 565.395 305.751C538.259 290.856 529.395 262.299 529.395 262.299L403.395 197.39"/><path fill="#8E6662" d="M531.578 249.961H528.395V310.578H531.578V249.961Z"/><path fill="#8E6662" d="M632.578 305.751H629.395V366.367H632.578V305.751Z"/><path fill="#8E6662" d="M405.667 186.599H402.484V247.215H405.667V186.599Z"/><path stroke="#000" stroke-miterlimit="10" d="M562.395 315.407L618.446 341.873H789.144"/><path stroke="#000" stroke-miterlimit="10" d="M444.895 163.594L652.697 70.2534H823.395"/><path fill="#E5EFF8" d="M392.088 104.781L455.445 144.059L511.275 109.743L447.918 70.7214L392.088 104.781Z" opacity=".5"/><path fill="#9EC9F0" d="M455.445 95.6495V141.249L507.779 108.54V63.1973L455.445 95.6495Z"/><path fill="#9DC6ED" d="M455.445 149.895V144.464L511.516 109.683V115.369L455.445 149.895Z"/><path fill="#E5EFF8" d="M455.445 149.894V144.463L392.307 105.045V110.731L455.445 149.894Z"/><path fill="#9FCAF1" d="M455.445 95.6493V88.3402L511.275 54.0243V61.5903L455.445 95.6493Z"/><path fill="#FDFDFD" d="M392.088 49.0598L455.445 88.3378L511.275 54.0219L447.918 15L392.088 49.0598Z" opacity=".5"/><path fill="#E9F3FC" d="M400.246 49.4165L454.932 83.321L503.121 53.7024L448.435 20.0191L400.246 49.4165Z" opacity=".5"/><path fill="#9EC9F0" d="M400.246 49.4165L403.198 51.247L448.435 24.2409L499.562 55.6319L503.121 53.7024L448.435 20.0191L400.246 49.4165Z" opacity=".5"/><path fill="#E9F3FC" d="M455.444 95.6469V88.3404L392.137 50.0562V56.7685L455.444 95.6469Z"/><path fill="#FEFEFE" d="M455.445 88.6845V73.3929C455.445 73.3929 454.172 61.9585 451.682 57.4575C449.192 52.9565 440.782 46.9068 440.782 46.9068L405.026 25.0429C405.026 25.0429 399.544 22.4978 396.166 25.0429C392.788 27.5879 392.119 30.6854 392.119 34.2549C392.119 37.8245 392.119 50.0563 392.119 50.0563L455.445 88.6845Z"/><path fill="#A1D1FA" d="M455.445 95.6494V141.249L394.971 102.804V58.4938L455.445 95.6494Z"/><path fill="#3494EF" d="M426.526 84.1032V116.093L399.221 98.5112V67.4285L426.526 84.1032Z"/><g filter="url(#filter15_d_557_470)"><path fill="#fff" d="M426.522 84.1044V116.094L399.217 98.5124V67.4296L426.522 84.1044Z"/></g><path stroke="#fff" stroke-miterlimit="10" stroke-width="2" d="M426.526 84.1032V116.093L399.221 98.5112V67.4285L426.526 84.1032Z"/><path fill="#3494EF" d="M448.809 99.4708V131.46L438.215 124.124V93.0411L448.809 99.4708Z"/><g filter="url(#filter16_d_557_470)"><path fill="#fff" d="M448.807 99.472V131.461L438.213 124.125V93.0424L448.807 99.472Z"/></g><path stroke="#fff" stroke-miterlimit="10" stroke-width="2" d="M448.809 99.4708V131.46L438.215 124.124V93.0411L448.809 99.4708Z"/><rect width="563" height="302" y="563" fill="url(#paint6_linear_557_470)" transform="rotate(-90 0 563)"/><path fill="#000" d="M846.824 371.485C845.928 371.485 845.144 371.282 844.472 370.877C843.8 370.472 843.277 369.922 842.904 369.229C842.53 368.536 842.344 367.768 842.344 366.925C842.344 366.05 842.53 365.277 842.904 364.605C843.288 363.922 843.805 363.384 844.456 362.989C845.117 362.594 845.853 362.397 846.664 362.397C847.346 362.397 847.944 362.509 848.456 362.733C848.978 362.957 849.421 363.266 849.784 363.661C850.146 364.056 850.424 364.509 850.616 365.021C850.808 365.522 850.904 366.066 850.904 366.653C850.904 366.802 850.893 366.957 850.872 367.117C850.861 367.277 850.834 367.416 850.792 367.533H844.072V365.933H849.608L848.616 366.685C848.712 366.194 848.685 365.757 848.536 365.373C848.397 364.989 848.162 364.685 847.832 364.461C847.512 364.237 847.122 364.125 846.664 364.125C846.226 364.125 845.837 364.237 845.496 364.461C845.154 364.674 844.893 364.994 844.712 365.421C844.541 365.837 844.477 366.344 844.52 366.941C844.477 367.474 844.546 367.949 844.728 368.365C844.92 368.77 845.197 369.085 845.56 369.309C845.933 369.533 846.36 369.645 846.84 369.645C847.32 369.645 847.725 369.544 848.056 369.341C848.397 369.138 848.664 368.866 848.856 368.525L850.552 369.357C850.381 369.773 850.114 370.141 849.752 370.461C849.389 370.781 848.957 371.032 848.456 371.213C847.965 371.394 847.421 371.485 846.824 371.485Z"/><path fill="#000" d="M833.211 371.293V362.589H835.179V364.301L835.019 363.997C835.222 363.474 835.552 363.08 836.011 362.813C836.48 362.536 837.024 362.397 837.643 362.397C838.283 362.397 838.848 362.536 839.339 362.813C839.84 363.09 840.23 363.48 840.507 363.981C840.784 364.472 840.923 365.042 840.923 365.693V371.293H838.827V366.189C838.827 365.805 838.752 365.474 838.603 365.197C838.454 364.92 838.246 364.706 837.979 364.557C837.723 364.397 837.419 364.317 837.067 364.317C836.726 364.317 836.422 364.397 836.155 364.557C835.888 364.706 835.68 364.92 835.531 365.197C835.382 365.474 835.307 365.805 835.307 366.189V371.293H833.211Z"/><path fill="#000" d="M829.18 371.293V362.589H831.276V371.293H829.18ZM829.18 361.613V359.373H831.276V361.613H829.18Z"/><path fill="#000" d="M825.148 371.293V359.181H827.244V371.293H825.148Z"/><path fill="#000" d="M819.164 371.293V362.589H821.132V364.525L820.972 364.237C821.175 363.586 821.489 363.133 821.916 362.877C822.353 362.621 822.876 362.493 823.484 362.493H823.996V364.349H823.244C822.647 364.349 822.167 364.536 821.804 364.909C821.441 365.272 821.26 365.784 821.26 366.445V371.293H819.164Z"/><path fill="#000" d="M813.496 371.485C812.6 371.485 811.816 371.282 811.144 370.877C810.472 370.472 809.949 369.922 809.576 369.229C809.202 368.536 809.016 367.768 809.016 366.925C809.016 366.05 809.202 365.277 809.576 364.605C809.96 363.922 810.477 363.384 811.128 362.989C811.789 362.594 812.525 362.397 813.336 362.397C814.018 362.397 814.616 362.509 815.128 362.733C815.65 362.957 816.093 363.266 816.456 363.661C816.818 364.056 817.096 364.509 817.288 365.021C817.48 365.522 817.576 366.066 817.576 366.653C817.576 366.802 817.565 366.957 817.544 367.117C817.533 367.277 817.506 367.416 817.464 367.533H810.744V365.933H816.28L815.288 366.685C815.384 366.194 815.357 365.757 815.208 365.373C815.069 364.989 814.834 364.685 814.504 364.461C814.184 364.237 813.794 364.125 813.336 364.125C812.898 364.125 812.509 364.237 812.168 364.461C811.826 364.674 811.565 364.994 811.384 365.421C811.213 365.837 811.149 366.344 811.192 366.941C811.149 367.474 811.218 367.949 811.4 368.365C811.592 368.77 811.869 369.085 812.232 369.309C812.605 369.533 813.032 369.645 813.512 369.645C813.992 369.645 814.397 369.544 814.728 369.341C815.069 369.138 815.336 368.866 815.528 368.525L817.224 369.357C817.053 369.773 816.786 370.141 816.424 370.461C816.061 370.781 815.629 371.032 815.128 371.213C814.637 371.394 814.093 371.485 813.496 371.485Z"/><path fill="#000" d="M797.59 371.293L794.598 362.589H796.806L798.998 369.197L798.23 369.181L800.566 362.589H802.422L804.742 369.181L803.974 369.197L806.166 362.589H808.374L805.382 371.293H803.51L801.142 364.397H801.846L799.446 371.293H797.59Z"/><path fill="#000" d="M789.374 371.485C788.52 371.485 787.742 371.288 787.038 370.893C786.344 370.498 785.79 369.96 785.374 369.277C784.968 368.594 784.766 367.816 784.766 366.941C784.766 366.066 784.968 365.288 785.374 364.605C785.79 363.922 786.344 363.384 787.038 362.989C787.731 362.594 788.51 362.397 789.374 362.397C790.227 362.397 791 362.594 791.694 362.989C792.387 363.384 792.936 363.922 793.342 364.605C793.758 365.277 793.966 366.056 793.966 366.941C793.966 367.816 793.758 368.594 793.342 369.277C792.926 369.96 792.371 370.498 791.678 370.893C790.984 371.288 790.216 371.485 789.374 371.485ZM789.374 369.565C789.843 369.565 790.254 369.453 790.606 369.229C790.968 369.005 791.251 368.696 791.454 368.301C791.667 367.896 791.774 367.442 791.774 366.941C791.774 366.429 791.667 365.981 791.454 365.597C791.251 365.202 790.968 364.893 790.606 364.669C790.254 364.434 789.843 364.317 789.374 364.317C788.894 364.317 788.472 364.434 788.11 364.669C787.747 364.893 787.459 365.202 787.246 365.597C787.043 365.981 786.942 366.429 786.942 366.941C786.942 367.442 787.043 367.896 787.246 368.301C787.459 368.696 787.747 369.005 788.11 369.229C788.472 369.453 788.894 369.565 789.374 369.565Z"/><path fill="#000" d="M774.367 374.493V362.589H776.335V364.317L776.143 363.885C776.442 363.416 776.847 363.053 777.359 362.797C777.871 362.53 778.463 362.397 779.135 362.397C779.957 362.397 780.698 362.6 781.359 363.005C782.021 363.41 782.543 363.954 782.927 364.637C783.322 365.32 783.519 366.088 783.519 366.941C783.519 367.784 783.327 368.552 782.943 369.245C782.559 369.938 782.037 370.488 781.375 370.893C780.714 371.288 779.962 371.485 779.119 371.485C778.49 371.485 777.909 371.362 777.375 371.117C776.853 370.861 776.437 370.498 776.127 370.029L776.463 369.613V374.493H774.367ZM778.879 369.565C779.359 369.565 779.786 369.453 780.159 369.229C780.533 369.005 780.821 368.696 781.023 368.301C781.237 367.906 781.343 367.453 781.343 366.941C781.343 366.429 781.237 365.981 781.023 365.597C780.821 365.202 780.533 364.893 780.159 364.669C779.786 364.434 779.359 364.317 778.879 364.317C778.421 364.317 778.005 364.429 777.631 364.653C777.269 364.877 776.981 365.192 776.767 365.597C776.565 365.992 776.463 366.44 776.463 366.941C776.463 367.453 776.565 367.906 776.767 368.301C776.981 368.696 777.269 369.005 777.631 369.229C778.005 369.453 778.421 369.565 778.879 369.565Z"/><path fill="#000" d="M765.31 374.813C764.66 374.813 764.057 374.706 763.502 374.493C762.948 374.28 762.468 373.981 762.062 373.597C761.668 373.224 761.38 372.781 761.198 372.269L763.15 371.533C763.278 371.938 763.529 372.264 763.902 372.509C764.286 372.765 764.756 372.893 765.31 372.893C765.737 372.893 766.11 372.813 766.43 372.653C766.761 372.493 767.017 372.258 767.198 371.949C767.38 371.65 767.47 371.288 767.47 370.861V368.877L767.87 369.357C767.572 369.88 767.172 370.274 766.67 370.541C766.169 370.808 765.598 370.941 764.958 370.941C764.148 370.941 763.422 370.754 762.782 370.381C762.142 370.008 761.641 369.496 761.278 368.845C760.916 368.194 760.734 367.464 760.734 366.653C760.734 365.832 760.916 365.101 761.278 364.461C761.641 363.821 762.137 363.32 762.766 362.957C763.396 362.584 764.11 362.397 764.91 362.397C765.561 362.397 766.132 362.536 766.622 362.813C767.124 363.08 767.54 363.469 767.87 363.981L767.582 364.509V362.589H769.566V370.861C769.566 371.618 769.38 372.296 769.006 372.893C768.644 373.49 768.142 373.96 767.502 374.301C766.873 374.642 766.142 374.813 765.31 374.813ZM765.214 369.005C765.662 369.005 766.052 368.909 766.382 368.717C766.724 368.514 766.99 368.237 767.182 367.885C767.374 367.533 767.47 367.128 767.47 366.669C767.47 366.221 767.369 365.821 767.166 365.469C766.974 365.106 766.708 364.824 766.366 364.621C766.036 364.418 765.652 364.317 765.214 364.317C764.777 364.317 764.382 364.418 764.03 364.621C763.678 364.824 763.401 365.106 763.198 365.469C763.006 365.821 762.91 366.221 762.91 366.669C762.91 367.117 763.006 367.517 763.198 367.869C763.401 368.221 763.673 368.498 764.014 368.701C764.366 368.904 764.766 369.005 765.214 369.005Z"/><path fill="#000" d="M751.602 371.293V362.589H753.57V364.301L753.41 363.997C753.612 363.474 753.943 363.08 754.402 362.813C754.871 362.536 755.415 362.397 756.034 362.397C756.674 362.397 757.239 362.536 757.73 362.813C758.231 363.09 758.62 363.48 758.898 363.981C759.175 364.472 759.314 365.042 759.314 365.693V371.293H757.218V366.189C757.218 365.805 757.143 365.474 756.994 365.197C756.844 364.92 756.636 364.706 756.37 364.557C756.114 364.397 755.81 364.317 755.458 364.317C755.116 364.317 754.812 364.397 754.546 364.557C754.279 364.706 754.071 364.92 753.922 365.197C753.772 365.474 753.698 365.805 753.698 366.189V371.293H751.602Z"/><path fill="#000" d="M747.57 371.293V362.589H749.666V371.293H747.57ZM747.57 361.613V359.373H749.666V361.613H747.57Z"/><path fill="#000" d="M741.357 374.813C740.707 374.813 740.104 374.706 739.549 374.493C738.995 374.28 738.515 373.981 738.109 373.597C737.715 373.224 737.427 372.781 737.245 372.269L739.197 371.533C739.325 371.938 739.576 372.264 739.949 372.509C740.333 372.765 740.803 372.893 741.357 372.893C741.784 372.893 742.157 372.813 742.477 372.653C742.808 372.493 743.064 372.258 743.245 371.949C743.427 371.65 743.517 371.288 743.517 370.861V368.877L743.917 369.357C743.619 369.88 743.219 370.274 742.717 370.541C742.216 370.808 741.645 370.941 741.005 370.941C740.195 370.941 739.469 370.754 738.829 370.381C738.189 370.008 737.688 369.496 737.325 368.845C736.963 368.194 736.781 367.464 736.781 366.653C736.781 365.832 736.963 365.101 737.325 364.461C737.688 363.821 738.184 363.32 738.813 362.957C739.443 362.584 740.157 362.397 740.957 362.397C741.608 362.397 742.179 362.536 742.669 362.813C743.171 363.08 743.587 363.469 743.917 363.981L743.629 364.509V362.589H745.613V370.861C745.613 371.618 745.427 372.296 745.053 372.893C744.691 373.49 744.189 373.96 743.549 374.301C742.92 374.642 742.189 374.813 741.357 374.813ZM741.261 369.005C741.709 369.005 742.099 368.909 742.429 368.717C742.771 368.514 743.037 368.237 743.229 367.885C743.421 367.533 743.517 367.128 743.517 366.669C743.517 366.221 743.416 365.821 743.213 365.469C743.021 365.106 742.755 364.824 742.413 364.621C742.083 364.418 741.699 364.317 741.261 364.317C740.824 364.317 740.429 364.418 740.077 364.621C739.725 364.824 739.448 365.106 739.245 365.469C739.053 365.821 738.957 366.221 738.957 366.669C738.957 367.117 739.053 367.517 739.245 367.869C739.448 368.221 739.72 368.498 740.061 368.701C740.413 368.904 740.813 369.005 741.261 369.005Z"/><path fill="#000" d="M727.648 371.293V362.589H729.616V364.301L729.456 363.997C729.659 363.474 729.99 363.08 730.448 362.813C730.918 362.536 731.462 362.397 732.08 362.397C732.72 362.397 733.286 362.536 733.776 362.813C734.278 363.09 734.667 363.48 734.944 363.981C735.222 364.472 735.36 365.042 735.36 365.693V371.293H733.264V366.189C733.264 365.805 733.19 365.474 733.04 365.197C732.891 364.92 732.683 364.706 732.416 364.557C732.16 364.397 731.856 364.317 731.504 364.317C731.163 364.317 730.859 364.397 730.592 364.557C730.326 364.706 730.118 364.92 729.968 365.197C729.819 365.474 729.744 365.805 729.744 366.189V371.293H727.648Z"/><path fill="#000" d="M721.008 371.485C720.4 371.485 719.872 371.384 719.424 371.181C718.976 370.978 718.629 370.69 718.384 370.317C718.138 369.933 718.016 369.49 718.016 368.989C718.016 368.509 718.122 368.082 718.336 367.709C718.549 367.325 718.88 367.005 719.328 366.749C719.776 366.493 720.341 366.312 721.024 366.205L723.872 365.741V367.341L721.424 367.757C721.008 367.832 720.698 367.965 720.496 368.157C720.293 368.349 720.192 368.6 720.192 368.909C720.192 369.208 720.304 369.448 720.528 369.629C720.762 369.8 721.05 369.885 721.392 369.885C721.829 369.885 722.213 369.794 722.544 369.613C722.885 369.421 723.146 369.16 723.328 368.829C723.52 368.498 723.616 368.136 723.616 367.741V365.501C723.616 365.128 723.466 364.818 723.168 364.573C722.88 364.317 722.496 364.189 722.016 364.189C721.568 364.189 721.168 364.312 720.816 364.557C720.474 364.792 720.224 365.106 720.064 365.501L718.352 364.669C718.522 364.21 718.789 363.816 719.152 363.485C719.525 363.144 719.962 362.877 720.464 362.685C720.965 362.493 721.509 362.397 722.096 362.397C722.81 362.397 723.44 362.53 723.984 362.797C724.528 363.053 724.949 363.416 725.248 363.885C725.557 364.344 725.712 364.882 725.712 365.501V371.293H723.728V369.805L724.176 369.773C723.952 370.146 723.685 370.461 723.376 370.717C723.066 370.962 722.714 371.154 722.32 371.293C721.925 371.421 721.488 371.485 721.008 371.485Z"/><path fill="#000" d="M708.883 371.293V359.181H710.979V364.301L710.691 363.997C710.893 363.474 711.224 363.08 711.683 362.813C712.152 362.536 712.696 362.397 713.315 362.397C713.955 362.397 714.52 362.536 715.011 362.813C715.512 363.09 715.901 363.48 716.179 363.981C716.456 364.472 716.595 365.042 716.595 365.693V371.293H714.499V366.189C714.499 365.805 714.424 365.474 714.275 365.197C714.125 364.92 713.917 364.706 713.651 364.557C713.395 364.397 713.091 364.317 712.739 364.317C712.397 364.317 712.093 364.397 711.827 364.557C711.56 364.706 711.352 364.92 711.203 365.197C711.053 365.474 710.979 365.805 710.979 366.189V371.293H708.883Z"/><path fill="#000" d="M694.105 371.293L691.113 362.589H693.321L695.513 369.197L694.745 369.181L697.081 362.589H698.937L701.257 369.181L700.489 369.197L702.681 362.589H704.889L701.897 371.293H700.025L697.657 364.397H698.361L695.961 371.293H694.105Z"/><path fill="#000" d="M685.889 371.485C685.036 371.485 684.257 371.288 683.553 370.893C682.86 370.498 682.305 369.96 681.889 369.277C681.484 368.594 681.281 367.816 681.281 366.941C681.281 366.066 681.484 365.288 681.889 364.605C682.305 363.922 682.86 363.384 683.553 362.989C684.247 362.594 685.025 362.397 685.889 362.397C686.743 362.397 687.516 362.594 688.209 362.989C688.903 363.384 689.452 363.922 689.857 364.605C690.273 365.277 690.481 366.056 690.481 366.941C690.481 367.816 690.273 368.594 689.857 369.277C689.441 369.96 688.887 370.498 688.193 370.893C687.5 371.288 686.732 371.485 685.889 371.485ZM685.889 369.565C686.359 369.565 686.769 369.453 687.121 369.229C687.484 369.005 687.767 368.696 687.969 368.301C688.183 367.896 688.289 367.442 688.289 366.941C688.289 366.429 688.183 365.981 687.969 365.597C687.767 365.202 687.484 364.893 687.121 364.669C686.769 364.434 686.359 364.317 685.889 364.317C685.409 364.317 684.988 364.434 684.625 364.669C684.263 364.893 683.975 365.202 683.761 365.597C683.559 365.981 683.457 366.429 683.457 366.941C683.457 367.442 683.559 367.896 683.761 368.301C683.975 368.696 684.263 369.005 684.625 369.229C684.988 369.453 685.409 369.565 685.889 369.565Z"/><path fill="#000" d="M673.121 371.293V359.373H675.297V369.373H680.401V371.293H673.121Z"/><path fill="#000" d="M836.511 58.192C835.615 58.192 834.831 57.9893 834.159 57.584C833.487 57.1787 832.965 56.6293 832.591 55.936C832.218 55.2427 832.031 54.4747 832.031 53.632C832.031 52.7573 832.218 51.984 832.591 51.312C832.975 50.6293 833.493 50.0907 834.143 49.696C834.805 49.3013 835.541 49.104 836.351 49.104C837.034 49.104 837.631 49.216 838.143 49.44C838.666 49.664 839.109 49.9733 839.471 50.368C839.834 50.7627 840.111 51.216 840.303 51.728C840.495 52.2293 840.591 52.7733 840.591 53.36C840.591 53.5093 840.581 53.664 840.559 53.824C840.549 53.984 840.522 54.1227 840.479 54.24H833.759V52.64H839.295L838.303 53.392C838.399 52.9013 838.373 52.464 838.223 52.08C838.085 51.696 837.85 51.392 837.519 51.168C837.199 50.944 836.81 50.832 836.351 50.832C835.914 50.832 835.525 50.944 835.183 51.168C834.842 51.3813 834.581 51.7013 834.399 52.128C834.229 52.544 834.165 53.0507 834.207 53.648C834.165 54.1813 834.234 54.656 834.415 55.072C834.607 55.4773 834.885 55.792 835.247 56.016C835.621 56.24 836.047 56.352 836.527 56.352C837.007 56.352 837.413 56.2507 837.743 56.048C838.085 55.8453 838.351 55.5733 838.543 55.232L840.239 56.064C840.069 56.48 839.802 56.848 839.439 57.168C839.077 57.488 838.645 57.7387 838.143 57.92C837.653 58.1013 837.109 58.192 836.511 58.192Z"/><path fill="#000" d="M828.352 57.9999V45.8879H830.448V57.9999H828.352Z"/><path fill="#000" d="M824.32 58V49.296H826.416V58H824.32ZM824.32 48.32V46.08H826.416V48.32H824.32Z"/><path fill="#000" d="M814.121 58V46.08H818.569C819.38 46.08 820.094 46.2293 820.713 46.528C821.342 46.816 821.833 47.2426 822.185 47.808C822.537 48.3626 822.713 49.04 822.713 49.84C822.713 50.6293 822.532 51.3066 822.169 51.872C821.817 52.4266 821.332 52.8533 820.713 53.152C820.094 53.4506 819.38 53.6 818.569 53.6H816.297V58H814.121ZM816.297 51.68H818.601C818.996 51.68 819.337 51.6053 819.625 51.456C819.913 51.296 820.137 51.0773 820.297 50.8C820.457 50.5226 820.537 50.2026 820.537 49.84C820.537 49.4666 820.457 49.1466 820.297 48.88C820.137 48.6026 819.913 48.3893 819.625 48.24C819.337 48.08 818.996 48 818.601 48H816.297V51.68Z"/><path fill="#000" d="M805.61 57.9999V51.1679H804.074V49.2959H805.61V49.0079C805.61 48.3466 805.744 47.7866 806.01 47.3279C806.288 46.8586 806.672 46.5013 807.162 46.2559C807.653 46.0106 808.234 45.8879 808.906 45.8879C809.034 45.8879 809.173 45.8986 809.322 45.9199C809.482 45.9306 809.616 45.9466 809.722 45.9679V47.7759C809.616 47.7546 809.514 47.7439 809.418 47.7439C809.333 47.7333 809.253 47.7279 809.178 47.7279C808.709 47.7279 808.346 47.8346 808.09 48.0479C807.834 48.2506 807.706 48.5706 807.706 49.0079V49.2959H809.642V51.1679H807.706V57.9999H805.61Z"/><path fill="#000" d="M798.07 58.192C797.462 58.192 796.934 58.0907 796.486 57.888C796.038 57.6853 795.691 57.3973 795.446 57.024C795.201 56.64 795.078 56.1973 795.078 55.696C795.078 55.216 795.185 54.7893 795.398 54.416C795.611 54.032 795.942 53.712 796.39 53.456C796.838 53.2 797.403 53.0187 798.086 52.912L800.934 52.448V54.048L798.486 54.464C798.07 54.5387 797.761 54.672 797.558 54.864C797.355 55.056 797.254 55.3067 797.254 55.616C797.254 55.9147 797.366 56.1547 797.59 56.336C797.825 56.5067 798.113 56.592 798.454 56.592C798.891 56.592 799.275 56.5013 799.606 56.32C799.947 56.128 800.209 55.8667 800.39 55.536C800.582 55.2053 800.678 54.8427 800.678 54.448V52.208C800.678 51.8347 800.529 51.5253 800.23 51.28C799.942 51.024 799.558 50.896 799.078 50.896C798.63 50.896 798.23 51.0187 797.878 51.264C797.537 51.4987 797.286 51.8133 797.126 52.208L795.414 51.376C795.585 50.9173 795.851 50.5227 796.214 50.192C796.587 49.8507 797.025 49.584 797.526 49.392C798.027 49.2 798.571 49.104 799.158 49.104C799.873 49.104 800.502 49.2373 801.046 49.504C801.59 49.76 802.011 50.1227 802.31 50.592C802.619 51.0507 802.774 51.5893 802.774 52.208V58H800.79V56.512L801.238 56.48C801.014 56.8533 800.747 57.168 800.438 57.424C800.129 57.6693 799.777 57.8613 799.382 58C798.987 58.128 798.55 58.192 798.07 58.192Z"/><path fill="#000" d="M789.793 58.192C788.897 58.192 788.113 57.9893 787.441 57.584C786.769 57.1787 786.246 56.6293 785.873 55.936C785.499 55.2427 785.312 54.4747 785.312 53.632C785.312 52.7573 785.499 51.984 785.873 51.312C786.257 50.6293 786.774 50.0907 787.425 49.696C788.086 49.3013 788.822 49.104 789.633 49.104C790.315 49.104 790.913 49.216 791.425 49.44C791.947 49.664 792.39 49.9733 792.752 50.368C793.115 50.7627 793.393 51.216 793.585 51.728C793.776 52.2293 793.873 52.7733 793.873 53.36C793.873 53.5093 793.862 53.664 793.841 53.824C793.83 53.984 793.803 54.1227 793.761 54.24H787.041V52.64H792.577L791.585 53.392C791.681 52.9013 791.654 52.464 791.505 52.08C791.366 51.696 791.131 51.392 790.801 51.168C790.481 50.944 790.091 50.832 789.633 50.832C789.195 50.832 788.806 50.944 788.465 51.168C788.123 51.3813 787.862 51.7013 787.681 52.128C787.51 52.544 787.446 53.0507 787.489 53.648C787.446 54.1813 787.515 54.656 787.697 55.072C787.889 55.4773 788.166 55.792 788.529 56.016C788.902 56.24 789.329 56.352 789.809 56.352C790.289 56.352 790.694 56.2507 791.025 56.048C791.366 55.8453 791.633 55.5733 791.825 55.232L793.521 56.064C793.35 56.48 793.083 56.848 792.721 57.168C792.358 57.488 791.926 57.7387 791.425 57.92C790.934 58.1013 790.39 58.192 789.793 58.192Z"/><path fill="#000" d="M777.152 58V46.08H779.328V56.08H784.432V58H777.152Z"/><path stroke="#000" stroke-miterlimit="10" d="M411.154 428.16L483.121 461.456H653.819"/><path fill="#000" d="M665.166 448.738C664.27 448.738 663.486 448.535 662.814 448.13C662.142 447.724 661.619 447.175 661.246 446.482C660.872 445.788 660.686 445.02 660.686 444.178C660.686 443.303 660.872 442.53 661.246 441.858C661.63 441.175 662.147 440.636 662.798 440.242C663.459 439.847 664.195 439.65 665.006 439.65C665.688 439.65 666.286 439.762 666.798 439.986C667.32 440.21 667.763 440.519 668.126 440.914C668.488 441.308 668.766 441.762 668.958 442.274C669.15 442.775 669.246 443.319 669.246 443.906C669.246 444.055 669.235 444.21 669.214 444.37C669.203 444.53 669.176 444.668 669.134 444.786H662.414V443.186H667.95L666.958 443.938C667.054 443.447 667.027 443.01 666.878 442.626C666.739 442.242 666.504 441.938 666.174 441.714C665.854 441.49 665.464 441.378 665.006 441.378C664.568 441.378 664.179 441.49 663.838 441.714C663.496 441.927 663.235 442.247 663.054 442.674C662.883 443.09 662.819 443.596 662.862 444.194C662.819 444.727 662.888 445.202 663.07 445.618C663.262 446.023 663.539 446.338 663.902 446.562C664.275 446.786 664.702 446.898 665.182 446.898C665.662 446.898 666.067 446.796 666.398 446.594C666.739 446.391 667.006 446.119 667.198 445.778L668.894 446.61C668.723 447.026 668.456 447.394 668.094 447.714C667.731 448.034 667.299 448.284 666.798 448.466C666.307 448.647 665.763 448.738 665.166 448.738Z"/><path fill="#000" d="M657.006 448.545V436.433H659.102V448.545H657.006Z"/><path fill="#000" d="M650.825 448.738C649.971 448.738 649.193 448.54 648.489 448.146C647.795 447.751 647.241 447.212 646.825 446.53C646.419 445.847 646.217 445.068 646.217 444.194C646.217 443.319 646.419 442.54 646.825 441.858C647.241 441.175 647.795 440.636 648.489 440.242C649.182 439.847 649.961 439.65 650.825 439.65C651.678 439.65 652.451 439.847 653.145 440.242C653.838 440.636 654.387 441.175 654.793 441.858C655.209 442.53 655.417 443.308 655.417 444.194C655.417 445.068 655.209 445.847 654.793 446.53C654.377 447.212 653.822 447.751 653.129 448.146C652.435 448.54 651.667 448.738 650.825 448.738ZM650.825 446.818C651.294 446.818 651.705 446.706 652.057 446.482C652.419 446.258 652.702 445.948 652.905 445.554C653.118 445.148 653.225 444.695 653.225 444.194C653.225 443.682 653.118 443.234 652.905 442.85C652.702 442.455 652.419 442.146 652.057 441.922C651.705 441.687 651.294 441.57 650.825 441.57C650.345 441.57 649.923 441.687 649.561 441.922C649.198 442.146 648.91 442.455 648.697 442.85C648.494 443.234 648.393 443.682 648.393 444.194C648.393 444.695 648.494 445.148 648.697 445.554C648.91 445.948 649.198 446.258 649.561 446.482C649.923 446.706 650.345 446.818 650.825 446.818Z"/><path fill="#000" d="M637.084 448.545V436.433H639.18V441.553L638.892 441.249C639.095 440.727 639.425 440.332 639.884 440.065C640.353 439.788 640.897 439.649 641.516 439.649C642.156 439.649 642.721 439.788 643.212 440.065C643.713 440.343 644.103 440.732 644.38 441.233C644.657 441.724 644.796 442.295 644.796 442.945V448.545H642.7V443.441C642.7 443.057 642.625 442.727 642.476 442.449C642.327 442.172 642.119 441.959 641.852 441.809C641.596 441.649 641.292 441.569 640.94 441.569C640.599 441.569 640.295 441.649 640.028 441.809C639.761 441.959 639.553 442.172 639.404 442.449C639.255 442.727 639.18 443.057 639.18 443.441V448.545H637.084Z"/><path fill="#000" d="M634.442 448.642C633.46 448.642 632.698 448.375 632.154 447.842C631.62 447.298 631.354 446.535 631.354 445.554V441.714H629.85V439.842H630.01C630.436 439.842 630.767 439.73 631.002 439.506C631.236 439.282 631.354 438.956 631.354 438.53V437.858H633.45V439.842H635.45V441.714H633.45V445.442C633.45 445.73 633.498 445.975 633.594 446.178C633.7 446.38 633.86 446.535 634.074 446.642C634.298 446.748 634.58 446.802 634.922 446.802C634.996 446.802 635.082 446.796 635.178 446.786C635.284 446.775 635.386 446.764 635.482 446.754V448.546C635.332 448.567 635.162 448.588 634.97 448.61C634.778 448.631 634.602 448.642 634.442 448.642Z"/><path fill="#000" d="M624.45 448.738C623.596 448.738 622.818 448.54 622.114 448.146C621.42 447.751 620.866 447.212 620.45 446.53C620.044 445.847 619.842 445.068 619.842 444.194C619.842 443.319 620.044 442.54 620.45 441.858C620.866 441.175 621.42 440.636 622.114 440.242C622.807 439.847 623.586 439.65 624.45 439.65C625.303 439.65 626.076 439.847 626.77 440.242C627.463 440.636 628.012 441.175 628.418 441.858C628.834 442.53 629.042 443.308 629.042 444.194C629.042 445.068 628.834 445.847 628.418 446.53C628.002 447.212 627.447 447.751 626.754 448.146C626.06 448.54 625.292 448.738 624.45 448.738ZM624.45 446.818C624.919 446.818 625.33 446.706 625.682 446.482C626.044 446.258 626.327 445.948 626.53 445.554C626.743 445.148 626.85 444.695 626.85 444.194C626.85 443.682 626.743 443.234 626.53 442.85C626.327 442.455 626.044 442.146 625.682 441.922C625.33 441.687 624.919 441.57 624.45 441.57C623.97 441.57 623.548 441.687 623.186 441.922C622.823 442.146 622.535 442.455 622.322 442.85C622.119 443.234 622.018 443.682 622.018 444.194C622.018 444.695 622.119 445.148 622.322 445.554C622.535 445.948 622.823 446.258 623.186 446.482C623.548 446.706 623.97 446.818 624.45 446.818Z"/><path fill="#000" d="M610.307 448.545V436.625H614.755C615.565 436.625 616.28 436.775 616.899 437.073C617.528 437.361 618.019 437.788 618.371 438.353C618.723 438.908 618.899 439.585 618.899 440.385C618.899 441.175 618.717 441.852 618.355 442.417C618.003 442.972 617.517 443.399 616.899 443.697C616.28 443.996 615.565 444.145 614.755 444.145H612.483V448.545H610.307ZM612.483 442.225H614.787C615.181 442.225 615.523 442.151 615.811 442.001C616.099 441.841 616.323 441.623 616.483 441.345C616.643 441.068 616.723 440.748 616.723 440.385C616.723 440.012 616.643 439.692 616.483 439.425C616.323 439.148 616.099 438.935 615.811 438.785C615.523 438.625 615.181 438.545 614.787 438.545H612.483V442.225Z"/><path fill="#000" d="M255.509 494.108C254.613 494.108 253.829 493.905 253.157 493.5C252.485 493.094 251.963 492.545 251.589 491.852C251.216 491.158 251.029 490.39 251.029 489.548C251.029 488.673 251.216 487.9 251.589 487.228C251.973 486.545 252.491 486.006 253.141 485.612C253.803 485.217 254.539 485.02 255.349 485.02C256.032 485.02 256.629 485.132 257.141 485.356C257.664 485.58 258.107 485.889 258.469 486.284C258.832 486.678 259.109 487.132 259.301 487.644C259.493 488.145 259.589 488.689 259.589 489.276C259.589 489.425 259.579 489.58 259.557 489.74C259.547 489.9 259.52 490.038 259.477 490.156H252.757V488.556H258.293L257.301 489.308C257.397 488.817 257.371 488.38 257.221 487.996C257.083 487.612 256.848 487.308 256.517 487.084C256.197 486.86 255.808 486.748 255.349 486.748C254.912 486.748 254.523 486.86 254.181 487.084C253.84 487.297 253.579 487.617 253.397 488.044C253.227 488.46 253.163 488.966 253.205 489.564C253.163 490.097 253.232 490.572 253.413 490.988C253.605 491.393 253.883 491.708 254.245 491.932C254.619 492.156 255.045 492.268 255.525 492.268C256.005 492.268 256.411 492.166 256.741 491.964C257.083 491.761 257.349 491.489 257.541 491.148L259.237 491.98C259.067 492.396 258.8 492.764 258.437 493.084C258.075 493.404 257.643 493.654 257.141 493.836C256.651 494.017 256.107 494.108 255.509 494.108Z"/><path fill="#000" d="M247.352 493.915V481.803H249.448V493.915H247.352Z"/><path fill="#000" d="M241.808 494.108C240.944 494.108 240.165 493.91 239.472 493.516C238.789 493.11 238.25 492.566 237.856 491.884C237.461 491.19 237.264 490.412 237.264 489.548C237.264 488.684 237.461 487.91 237.856 487.228C238.25 486.545 238.789 486.006 239.472 485.612C240.165 485.217 240.944 485.02 241.808 485.02C242.426 485.02 243.002 485.132 243.536 485.356C244.069 485.569 244.528 485.868 244.912 486.252C245.306 486.625 245.589 487.073 245.76 487.596L243.92 488.396C243.76 487.958 243.488 487.606 243.104 487.34C242.73 487.073 242.298 486.94 241.808 486.94C241.349 486.94 240.938 487.052 240.576 487.276C240.224 487.5 239.946 487.809 239.744 488.204C239.541 488.598 239.44 489.052 239.44 489.564C239.44 490.076 239.541 490.529 239.744 490.924C239.946 491.318 240.224 491.628 240.576 491.852C240.938 492.076 241.349 492.188 241.808 492.188C242.309 492.188 242.746 492.054 243.12 491.788C243.493 491.521 243.76 491.164 243.92 490.716L245.76 491.548C245.589 492.038 245.312 492.481 244.928 492.876C244.544 493.26 244.085 493.564 243.552 493.788C243.018 494.001 242.437 494.108 241.808 494.108Z"/><path fill="#000" d="M233.586 493.915V485.211H235.682V493.915H233.586ZM233.586 484.235V481.995H235.682V484.235H233.586Z"/><path fill="#000" d="M224.102 493.915V481.803H226.198V486.923L225.91 486.619C226.112 486.097 226.443 485.702 226.902 485.435C227.371 485.158 227.915 485.019 228.534 485.019C229.174 485.019 229.739 485.158 230.23 485.435C230.731 485.713 231.12 486.102 231.398 486.603C231.675 487.094 231.814 487.665 231.814 488.315V493.915H229.718V488.811C229.718 488.427 229.643 488.097 229.494 487.819C229.344 487.542 229.136 487.329 228.87 487.179C228.614 487.019 228.31 486.939 227.958 486.939C227.616 486.939 227.312 487.019 227.046 487.179C226.779 487.329 226.571 487.542 226.422 487.819C226.272 488.097 226.198 488.427 226.198 488.811V493.915H224.102Z"/><path fill="#000" d="M218.431 494.108C217.535 494.108 216.751 493.905 216.079 493.5C215.407 493.094 214.885 492.545 214.511 491.852C214.138 491.158 213.951 490.39 213.951 489.548C213.951 488.673 214.138 487.9 214.511 487.228C214.895 486.545 215.413 486.006 216.063 485.612C216.725 485.217 217.461 485.02 218.271 485.02C218.954 485.02 219.551 485.132 220.063 485.356C220.586 485.58 221.029 485.889 221.391 486.284C221.754 486.678 222.031 487.132 222.223 487.644C222.415 488.145 222.511 488.689 222.511 489.276C222.511 489.425 222.501 489.58 222.479 489.74C222.469 489.9 222.442 490.038 222.399 490.156H215.679V488.556H221.215L220.223 489.308C220.319 488.817 220.293 488.38 220.143 487.996C220.005 487.612 219.77 487.308 219.439 487.084C219.119 486.86 218.73 486.748 218.271 486.748C217.834 486.748 217.445 486.86 217.103 487.084C216.762 487.297 216.501 487.617 216.319 488.044C216.149 488.46 216.085 488.966 216.127 489.564C216.085 490.097 216.154 490.572 216.335 490.988C216.527 491.393 216.805 491.708 217.167 491.932C217.541 492.156 217.967 492.268 218.447 492.268C218.927 492.268 219.333 492.166 219.663 491.964C220.005 491.761 220.271 491.489 220.463 491.148L222.159 491.98C221.989 492.396 221.722 492.764 221.359 493.084C220.997 493.404 220.565 493.654 220.063 493.836C219.573 494.017 219.029 494.108 218.431 494.108Z"/><path fill="#000" d="M207.305 493.915L203.145 481.995H205.513L208.777 491.867H208.313L211.577 481.995H213.945L209.801 493.915H207.305Z"/><path fill="#000" d="M194.398 494.107C193.555 494.107 192.803 493.91 192.142 493.515C191.481 493.11 190.958 492.561 190.574 491.867C190.19 491.174 189.998 490.406 189.998 489.563C189.998 488.71 190.19 487.942 190.574 487.259C190.958 486.577 191.481 486.033 192.142 485.627C192.814 485.222 193.561 485.019 194.382 485.019C195.043 485.019 195.63 485.153 196.142 485.419C196.665 485.675 197.075 486.038 197.374 486.507L197.054 486.939V481.803H199.15V493.915H197.166V492.235L197.39 492.651C197.091 493.121 196.675 493.483 196.142 493.739C195.609 493.985 195.027 494.107 194.398 494.107ZM194.622 492.187C195.102 492.187 195.523 492.075 195.886 491.851C196.249 491.627 196.531 491.318 196.734 490.923C196.947 490.529 197.054 490.075 197.054 489.563C197.054 489.062 196.947 488.614 196.734 488.219C196.531 487.814 196.249 487.499 195.886 487.275C195.523 487.051 195.102 486.939 194.622 486.939C194.153 486.939 193.731 487.057 193.358 487.291C192.985 487.515 192.691 487.825 192.478 488.219C192.275 488.603 192.174 489.051 192.174 489.563C192.174 490.075 192.275 490.529 192.478 490.923C192.691 491.318 192.985 491.627 193.358 491.851C193.731 492.075 194.153 492.187 194.622 492.187Z"/><path fill="#000" d="M184.681 494.108C183.785 494.108 183.001 493.905 182.329 493.5C181.657 493.094 181.135 492.545 180.761 491.852C180.388 491.158 180.201 490.39 180.201 489.548C180.201 488.673 180.388 487.9 180.761 487.228C181.145 486.545 181.663 486.006 182.313 485.612C182.975 485.217 183.711 485.02 184.521 485.02C185.204 485.02 185.801 485.132 186.313 485.356C186.836 485.58 187.279 485.889 187.641 486.284C188.004 486.678 188.281 487.132 188.473 487.644C188.665 488.145 188.761 488.689 188.761 489.276C188.761 489.425 188.751 489.58 188.729 489.74C188.719 489.9 188.692 490.038 188.649 490.156H181.929V488.556H187.465L186.473 489.308C186.569 488.817 186.543 488.38 186.393 487.996C186.255 487.612 186.02 487.308 185.689 487.084C185.369 486.86 184.98 486.748 184.521 486.748C184.084 486.748 183.695 486.86 183.353 487.084C183.012 487.297 182.751 487.617 182.569 488.044C182.399 488.46 182.335 488.966 182.377 489.564C182.335 490.097 182.404 490.572 182.585 490.988C182.777 491.393 183.055 491.708 183.417 491.932C183.791 492.156 184.217 492.268 184.697 492.268C185.177 492.268 185.583 492.166 185.913 491.964C186.255 491.761 186.521 491.489 186.713 491.148L188.409 491.98C188.239 492.396 187.972 492.764 187.609 493.084C187.247 493.404 186.815 493.654 186.313 493.836C185.823 494.017 185.279 494.108 184.681 494.108Z"/><path fill="#000" d="M171.07 493.916V485.212H173.038V486.924L172.878 486.62C173.081 486.097 173.412 485.702 173.87 485.436C174.34 485.158 174.884 485.02 175.502 485.02C176.142 485.02 176.708 485.158 177.198 485.436C177.7 485.713 178.089 486.102 178.366 486.604C178.644 487.094 178.782 487.665 178.782 488.316V493.916H176.686V488.812C176.686 488.428 176.612 488.097 176.462 487.82C176.313 487.542 176.105 487.329 175.838 487.18C175.582 487.02 175.278 486.94 174.926 486.94C174.585 486.94 174.281 487.02 174.014 487.18C173.748 487.329 173.54 487.542 173.39 487.82C173.241 488.097 173.166 488.428 173.166 488.812V493.916H171.07Z"/><path fill="#000" d="M164.887 494.108C164.034 494.108 163.255 493.91 162.551 493.516C161.858 493.121 161.303 492.582 160.887 491.9C160.482 491.217 160.279 490.438 160.279 489.564C160.279 488.689 160.482 487.91 160.887 487.228C161.303 486.545 161.858 486.006 162.551 485.612C163.245 485.217 164.023 485.02 164.887 485.02C165.741 485.02 166.514 485.217 167.207 485.612C167.901 486.006 168.45 486.545 168.855 487.228C169.271 487.9 169.479 488.678 169.479 489.564C169.479 490.438 169.271 491.217 168.855 491.9C168.439 492.582 167.885 493.121 167.191 493.516C166.498 493.91 165.73 494.108 164.887 494.108ZM164.887 492.188C165.357 492.188 165.767 492.076 166.119 491.852C166.482 491.628 166.765 491.318 166.967 490.924C167.181 490.518 167.287 490.065 167.287 489.564C167.287 489.052 167.181 488.604 166.967 488.22C166.765 487.825 166.482 487.516 166.119 487.292C165.767 487.057 165.357 486.94 164.887 486.94C164.407 486.94 163.986 487.057 163.623 487.292C163.261 487.516 162.973 487.825 162.759 488.22C162.557 488.604 162.455 489.052 162.455 489.564C162.455 490.065 162.557 490.518 162.759 490.924C162.973 491.318 163.261 491.628 163.623 491.852C163.986 492.076 164.407 492.188 164.887 492.188Z"/><path fill="#000" d="M153.929 494.107C153.087 494.107 152.335 493.91 151.673 493.515C151.012 493.11 150.489 492.561 150.105 491.867C149.721 491.174 149.529 490.406 149.529 489.563C149.529 488.71 149.721 487.942 150.105 487.259C150.489 486.577 151.012 486.033 151.673 485.627C152.345 485.222 153.092 485.019 153.913 485.019C154.575 485.019 155.161 485.153 155.673 485.419C156.196 485.675 156.607 486.038 156.905 486.507L156.585 486.939V481.803H158.681V493.915H156.697V492.235L156.921 492.651C156.623 493.121 156.207 493.483 155.673 493.739C155.14 493.985 154.559 494.107 153.929 494.107ZM154.153 492.187C154.633 492.187 155.055 492.075 155.417 491.851C155.78 491.627 156.063 491.318 156.265 490.923C156.479 490.529 156.585 490.075 156.585 489.563C156.585 489.062 156.479 488.614 156.265 488.219C156.063 487.814 155.78 487.499 155.417 487.275C155.055 487.051 154.633 486.939 154.153 486.939C153.684 486.939 153.263 487.057 152.889 487.291C152.516 487.515 152.223 487.825 152.009 488.219C151.807 488.603 151.705 489.051 151.705 489.563C151.705 490.075 151.807 490.529 152.009 490.923C152.223 491.318 152.516 491.627 152.889 491.851C153.263 492.075 153.684 492.187 154.153 492.187Z"/><path fill="#000" d="M140.398 493.916V485.212H142.366V486.924L142.206 486.62C142.409 486.097 142.74 485.702 143.198 485.436C143.668 485.158 144.212 485.02 144.83 485.02C145.47 485.02 146.036 485.158 146.526 485.436C147.028 485.713 147.417 486.102 147.694 486.604C147.972 487.094 148.11 487.665 148.11 488.316V493.916H146.014V488.812C146.014 488.428 145.94 488.097 145.79 487.82C145.641 487.542 145.433 487.329 145.166 487.18C144.91 487.02 144.606 486.94 144.254 486.94C143.913 486.94 143.609 487.02 143.342 487.18C143.076 487.329 142.868 487.542 142.718 487.82C142.569 488.097 142.494 488.428 142.494 488.812V493.916H140.398Z"/><path fill="#000" d="M133.756 494.108C133.148 494.108 132.62 494.006 132.172 493.804C131.724 493.601 131.377 493.313 131.132 492.94C130.886 492.556 130.764 492.113 130.764 491.612C130.764 491.132 130.87 490.705 131.084 490.332C131.297 489.948 131.628 489.628 132.076 489.372C132.524 489.116 133.089 488.934 133.772 488.828L136.62 488.364V489.964L134.172 490.38C133.756 490.454 133.446 490.588 133.244 490.78C133.041 490.972 132.94 491.222 132.94 491.532C132.94 491.83 133.052 492.07 133.276 492.252C133.51 492.422 133.798 492.508 134.14 492.508C134.577 492.508 134.961 492.417 135.292 492.236C135.633 492.044 135.894 491.782 136.076 491.452C136.268 491.121 136.364 490.758 136.364 490.364V488.124C136.364 487.75 136.214 487.441 135.916 487.196C135.628 486.94 135.244 486.812 134.764 486.812C134.316 486.812 133.916 486.934 133.564 487.18C133.222 487.414 132.972 487.729 132.812 488.124L131.1 487.292C131.27 486.833 131.537 486.438 131.9 486.108C132.273 485.766 132.71 485.5 133.212 485.308C133.713 485.116 134.257 485.02 134.844 485.02C135.558 485.02 136.188 485.153 136.732 485.42C137.276 485.676 137.697 486.038 137.996 486.508C138.305 486.966 138.46 487.505 138.46 488.124V493.916H136.476V492.428L136.924 492.396C136.7 492.769 136.433 493.084 136.124 493.34C135.814 493.585 135.462 493.777 135.068 493.916C134.673 494.044 134.236 494.108 133.756 494.108Z"/><path fill="#000" d="M125.119 494.107C124.49 494.107 123.909 493.985 123.375 493.739C122.853 493.483 122.437 493.121 122.127 492.651L122.335 492.235V493.915H120.367V481.803H122.463V486.939L122.143 486.507C122.442 486.038 122.847 485.675 123.359 485.419C123.871 485.153 124.463 485.019 125.135 485.019C125.957 485.019 126.698 485.222 127.359 485.627C128.021 486.033 128.543 486.577 128.927 487.259C129.322 487.942 129.519 488.71 129.519 489.563C129.519 490.406 129.327 491.174 128.943 491.867C128.559 492.561 128.037 493.11 127.375 493.515C126.714 493.91 125.962 494.107 125.119 494.107ZM124.879 492.187C125.359 492.187 125.786 492.075 126.159 491.851C126.533 491.627 126.821 491.318 127.023 490.923C127.237 490.529 127.343 490.075 127.343 489.563C127.343 489.051 127.237 488.603 127.023 488.219C126.821 487.825 126.533 487.515 126.159 487.291C125.786 487.057 125.359 486.939 124.879 486.939C124.421 486.939 124.005 487.051 123.631 487.275C123.269 487.499 122.981 487.814 122.767 488.219C122.565 488.614 122.463 489.062 122.463 489.563C122.463 490.075 122.565 490.529 122.767 490.923C122.981 491.318 123.269 491.627 123.631 491.851C124.005 492.075 124.421 492.187 124.879 492.187Z"/><path fill="#000" d="M108.176 493.915L112.288 481.995H115.104L119.216 493.915H116.848L116 491.355H111.392L110.528 493.915H108.176ZM112.016 489.435H115.376L113.392 483.499H114L112.016 489.435Z"/><path stroke="#000" stroke-miterlimit="10" d="M390.087 376.772L233.507 470.685H106.043"/><g clip-path="url(#clip0_557_470)"><path fill="#DC2626" d="M651.969 353.668L640.969 372.918H662.969L651.969 353.668ZM653 360.543V361.574V366.387V367.418H650.938V366.387V361.574V360.543H653ZM650.938 368.793H653V370.855H650.938V368.793Z"/></g><g clip-path="url(#clip1_557_470)"><path fill="#FBBF24" d="M587.154 431.921L576.154 451.171H598.154L587.154 431.921ZM588.186 438.796V439.827V444.639V445.671H586.123V444.639V439.827V438.796H588.186ZM586.123 447.046H588.186V449.108H586.123V447.046Z"/></g><path fill="#FBBF24" d="M85 476.475L74 497.128H96L85 476.475ZM86.0312 483.851V484.958V490.121V491.227H83.9688V490.121V484.958V483.851H86.0312ZM83.9688 492.703H86.0312V494.915H83.9688V492.703Z"/><path fill="#FBBF24" d="M755 41.375L744 60.625H766L755 41.375ZM756.031 48.25V49.2812V54.0938V55.125H753.969V54.0938V49.2812V48.25H756.031ZM753.969 56.5H756.031V58.5625H753.969V56.5Z"/><path fill="#9D4E22" d="M423.667 168.04L429.569 171.553L441.372 180.232L436.274 188.247L428.372 191.498L419.872 184.524C419.872 184.524 417.872 186.67 412.345 184.524C411.701 182.116 412.493 173.028 412.345 170.91L423.667 168.04Z"/><path fill="#733918" d="M424.916 192.089L420.579 191.362L414.453 185.687L417.048 179.437L420.981 175.512L426.806 181.998C426.806 181.998 433.68 177.89 434.088 179.611C434.338 181.459 434.407 183.293 434.293 185.085L424.916 192.089Z"/><path fill="#DB6A2A" d="M423.409 171.907L426.768 172.704L430.622 177.692L427.333 182.772L423.409 185.86L419.953 180.211C419.953 180.211 413.623 183.321 413.623 181.873C413.775 180.325 414.071 178.798 414.506 177.313L423.409 171.907Z"/><path fill="#D67C4A" d="M423.144 173.539L424.97 173.972L427.064 176.684L425.277 179.445L423.144 181.124L421.265 178.053C421.265 178.053 417.824 179.743 417.825 178.956C417.907 178.115 418.068 177.284 418.305 176.478L423.144 173.539Z"/><path fill="#DB6A2A" d="M442.659 179.369L445.377 181.632L446.869 187.91L441.869 190.99L437.091 191.979L433.739 188.203C433.739 188.203 429.26 185.189 429.839 183.88C430.594 182.551 431.47 181.307 432.456 180.165L442.659 179.369Z"/><path fill="#D67C4A" d="M441.769 180.723L443.246 181.953L444.058 185.366L441.34 187.04L438.742 187.577L435.786 186.075C435.786 186.075 434.485 183.886 434.8 183.175C435.21 182.452 435.687 181.776 436.223 181.155L441.769 180.723Z"/><defs><filter id="filter0_d_557_470" width="53.725" height="43.712" x="548.488" y="113.003" color-interpolation-filters="sRGB" filterUnits="userSpaceOnUse"><feFlood flood-opacity="0" result="BackgroundImageFix"/><feColorMatrix in="SourceAlpha" result="hardAlpha" type="matrix" values="0 0 0 0 0 0 0 0 0 0 0 0 0 0 0 0 0 0 127 0"/><feOffset dx="-2" dy="-7"/><feColorMatrix type="matrix" values="0 0 0 0 0.168627 0 0 0 0 0.423529 0 0 0 0 0.439216 0 0 0 1 0"/><feBlend in2="BackgroundImageFix" mode="normal" result="effect1_dropShadow_557_470"/><feBlend in="SourceGraphic" in2="effect1_dropShadow_557_470" mode="normal" result="shape"/></filter><filter id="filter1_d_557_470" width="53.725" height="61.64" x="588.277" y="100.196" color-interpolation-filters="sRGB" filterUnits="userSpaceOnUse"><feFlood flood-opacity="0" result="BackgroundImageFix"/><feColorMatrix in="SourceAlpha" result="hardAlpha" type="matrix" values="0 0 0 0 0 0 0 0 0 0 0 0 0 0 0 0 0 0 127 0"/><feOffset dx="-2" dy="-7"/><feColorMatrix type="matrix" values="0 0 0 0 0.168627 0 0 0 0 0.423529 0 0 0 0 0.439216 0 0 0 1 0"/><feBlend in2="BackgroundImageFix" mode="normal" result="effect1_dropShadow_557_470"/><feBlend in="SourceGraphic" in2="effect1_dropShadow_557_470" mode="normal" result="shape"/></filter><filter id="filter2_d_557_470" width="16.098" height="57.372" x="721.969" y="230.821" color-interpolation-filters="sRGB" filterUnits="userSpaceOnUse"><feFlood flood-opacity="0" result="BackgroundImageFix"/><feColorMatrix in="SourceAlpha" result="hardAlpha" type="matrix" values="0 0 0 0 0 0 0 0 0 0 0 0 0 0 0 0 0 0 127 0"/><feOffset dx="-2" dy="-7"/><feColorMatrix type="matrix" values="0 0 0 0 0.168627 0 0 0 0 0.423529 0 0 0 0 0.439216 0 0 0 1 0"/><feBlend in2="BackgroundImageFix" mode="normal" result="effect1_dropShadow_557_470"/><feBlend in="SourceGraphic" in2="effect1_dropShadow_557_470" mode="normal" result="shape"/></filter><filter id="filter3_d_557_470" width="12.568" height="19.075" x="674.629" y="166.197" color-interpolation-filters="sRGB" filterUnits="userSpaceOnUse"><feFlood flood-opacity="0" result="BackgroundImageFix"/><feColorMatrix in="SourceAlpha" result="hardAlpha" type="matrix" values="0 0 0 0 0 0 0 0 0 0 0 0 0 0 0 0 0 0 127 0"/><feOffset dx="2" dy="2"/><feColorMatrix type="matrix" values="0 0 0 0 0.176471 0 0 0 0 0.494118 0 0 0 0 0.803922 0 0 0 1 0"/><feBlend in2="BackgroundImageFix" mode="normal" result="effect1_dropShadow_557_470"/><feBlend in="SourceGraphic" in2="effect1_dropShadow_557_470" mode="normal" result="shape"/></filter><filter id="filter4_d_557_470" width="13.918" height="23.075" x="617.557" y="166.197" color-interpolation-filters="sRGB" filterUnits="userSpaceOnUse"><feFlood flood-opacity="0" result="BackgroundImageFix"/><feColorMatrix in="SourceAlpha" result="hardAlpha" type="matrix" values="0 0 0 0 0 0 0 0 0 0 0 0 0 0 0 0 0 0 127 0"/><feOffset dx="3" dy="6"/><feColorMatrix type="matrix" values="0 0 0 0 0.176471 0 0 0 0 0.494118 0 0 0 0 0.803922 0 0 0 1 0"/><feBlend in2="BackgroundImageFix" mode="normal" result="effect1_dropShadow_557_470"/><feBlend in="SourceGraphic" in2="effect1_dropShadow_557_470" mode="normal" result="shape"/></filter><filter id="filter5_d_557_470" width="18.002" height="14.953" x="406.328" y="294.455" color-interpolation-filters="sRGB" filterUnits="userSpaceOnUse"><feFlood flood-opacity="0" result="BackgroundImageFix"/><feColorMatrix in="SourceAlpha" result="hardAlpha" type="matrix" values="0 0 0 0 0 0 0 0 0 0 0 0 0 0 0 0 0 0 127 0"/><feOffset dx="1" dy="1"/><feColorMatrix type="matrix" values="0 0 0 0 0 0 0 0 0 0 0 0 0 0 0 0 0 0 0.502 0"/><feBlend in2="BackgroundImageFix" mode="normal" result="effect1_dropShadow_557_470"/><feBlend in="SourceGraphic" in2="effect1_dropShadow_557_470" mode="normal" result="shape"/></filter><filter id="filter6_d_557_470" width="17.998" height="14.953" x="405.527" y="320.922" color-interpolation-filters="sRGB" filterUnits="userSpaceOnUse"><feFlood flood-opacity="0" result="BackgroundImageFix"/><feColorMatrix in="SourceAlpha" result="hardAlpha" type="matrix" values="0 0 0 0 0 0 0 0 0 0 0 0 0 0 0 0 0 0 127 0"/><feOffset dx="1" dy="1"/><feColorMatrix type="matrix" values="0 0 0 0 0 0 0 0 0 0 0 0 0 0 0 0 0 0 0.502 0"/><feBlend in2="BackgroundImageFix" mode="normal" result="effect1_dropShadow_557_470"/><feBlend in="SourceGraphic" in2="effect1_dropShadow_557_470" mode="normal" result="shape"/></filter><filter id="filter7_d_557_470" width="47.176" height="50.249" x="702.248" y="102.074" color-interpolation-filters="sRGB" filterUnits="userSpaceOnUse"><feFlood flood-opacity="0" result="BackgroundImageFix"/><feColorMatrix in="SourceAlpha" result="hardAlpha" type="matrix" values="0 0 0 0 0 0 0 0 0 0 0 0 0 0 0 0 0 0 127 0"/><feOffset dx="-5" dy="5"/><feColorMatrix type="matrix" values="0 0 0 0 0 0 0 0 0 0 0 0 0 0 0 0 0 0 0.502 0"/><feBlend in2="BackgroundImageFix" mode="normal" result="effect1_dropShadow_557_470"/><feBlend in="SourceGraphic" in2="effect1_dropShadow_557_470" mode="normal" result="shape"/></filter><filter id="filter8_d_557_470" width="45.584" height="48.542" x="703.051" y="87.56" color-interpolation-filters="sRGB" filterUnits="userSpaceOnUse"><feFlood flood-opacity="0" result="BackgroundImageFix"/><feColorMatrix in="SourceAlpha" result="hardAlpha" type="matrix" values="0 0 0 0 0 0 0 0 0 0 0 0 0 0 0 0 0 0 127 0"/><feOffset dx="-5" dy="5"/><feColorMatrix type="matrix" values="0 0 0 0 0 0 0 0 0 0 0 0 0 0 0 0 0 0 0.188 0"/><feBlend in2="BackgroundImageFix" mode="normal" result="effect1_dropShadow_557_470"/><feBlend in="SourceGraphic" in2="effect1_dropShadow_557_470" mode="normal" result="shape"/></filter><filter id="filter9_d_557_470" width="16.098" height="57.372" x="567.586" y="142.884" color-interpolation-filters="sRGB" filterUnits="userSpaceOnUse"><feFlood flood-opacity="0" result="BackgroundImageFix"/><feColorMatrix in="SourceAlpha" result="hardAlpha" type="matrix" values="0 0 0 0 0 0 0 0 0 0 0 0 0 0 0 0 0 0 127 0"/><feOffset dx="-2" dy="-7"/><feColorMatrix type="matrix" values="0 0 0 0 0.168627 0 0 0 0 0.423529 0 0 0 0 0.439216 0 0 0 1 0"/><feBlend in2="BackgroundImageFix" mode="normal" result="effect1_dropShadow_557_470"/><feBlend in="SourceGraphic" in2="effect1_dropShadow_557_470" mode="normal" result="shape"/></filter><filter id="filter10_d_557_470" width="53.725" height="61.64" x="772.096" y="148.861" color-interpolation-filters="sRGB" filterUnits="userSpaceOnUse"><feFlood flood-opacity="0" result="BackgroundImageFix"/><feColorMatrix in="SourceAlpha" result="hardAlpha" type="matrix" values="0 0 0 0 0 0 0 0 0 0 0 0 0 0 0 0 0 0 127 0"/><feOffset dx="-2" dy="-7"/><feColorMatrix type="matrix" values="0 0 0 0 0.168627 0 0 0 0 0.423529 0 0 0 0 0.439216 0 0 0 1 0"/><feBlend in2="BackgroundImageFix" mode="normal" result="effect1_dropShadow_557_470"/><feBlend in="SourceGraphic" in2="effect1_dropShadow_557_470" mode="normal" result="shape"/></filter><filter id="filter11_d_557_470" width="39.4" height="34.321" x="745.041" y="220.576" color-interpolation-filters="sRGB" filterUnits="userSpaceOnUse"><feFlood flood-opacity="0" result="BackgroundImageFix"/><feColorMatrix in="SourceAlpha" result="hardAlpha" type="matrix" values="0 0 0 0 0 0 0 0 0 0 0 0 0 0 0 0 0 0 127 0"/><feOffset dx="-2" dy="-7"/><feColorMatrix type="matrix" values="0 0 0 0 0.168627 0 0 0 0 0.423529 0 0 0 0 0.439216 0 0 0 1 0"/><feBlend in2="BackgroundImageFix" mode="normal" result="effect1_dropShadow_557_470"/><feBlend in="SourceGraphic" in2="effect1_dropShadow_557_470" mode="normal" result="shape"/></filter><filter id="filter12_d_557_470" width="53.725" height="61.64" x="613.742" y="171.058" color-interpolation-filters="sRGB" filterUnits="userSpaceOnUse"><feFlood flood-opacity="0" result="BackgroundImageFix"/><feColorMatrix in="SourceAlpha" result="hardAlpha" type="matrix" values="0 0 0 0 0 0 0 0 0 0 0 0 0 0 0 0 0 0 127 0"/><feOffset dx="-2" dy="-7"/><feColorMatrix type="matrix" values="0 0 0 0 0.168627 0 0 0 0 0.423529 0 0 0 0 0.439216 0 0 0 1 0"/><feBlend in2="BackgroundImageFix" mode="normal" result="effect1_dropShadow_557_470"/><feBlend in="SourceGraphic" in2="effect1_dropShadow_557_470" mode="normal" result="shape"/></filter><filter id="filter13_d_557_470" width="14.549" height="15.245" x="709.414" y="100.366" color-interpolation-filters="sRGB" filterUnits="userSpaceOnUse"><feFlood flood-opacity="0" result="BackgroundImageFix"/><feColorMatrix in="SourceAlpha" result="hardAlpha" type="matrix" values="0 0 0 0 0 0 0 0 0 0 0 0 0 0 0 0 0 0 127 0"/><feOffset dx="-5" dy="5"/><feColorMatrix type="matrix" values="0 0 0 0 0 0 0 0 0 0 0 0 0 0 0 0 0 0 0.188 0"/><feBlend in2="BackgroundImageFix" mode="normal" result="effect1_dropShadow_557_470"/><feBlend in="SourceGraphic" in2="effect1_dropShadow_557_470" mode="normal" result="shape"/></filter><filter id="filter14_d_557_470" width="14.549" height="15.245" x="710.209" y="134.517" color-interpolation-filters="sRGB" filterUnits="userSpaceOnUse"><feFlood flood-opacity="0" result="BackgroundImageFix"/><feColorMatrix in="SourceAlpha" result="hardAlpha" type="matrix" values="0 0 0 0 0 0 0 0 0 0 0 0 0 0 0 0 0 0 127 0"/><feOffset dx="-5" dy="5"/><feColorMatrix type="matrix" values="0 0 0 0 0 0 0 0 0 0 0 0 0 0 0 0 0 0 0.188 0"/><feBlend in2="BackgroundImageFix" mode="normal" result="effect1_dropShadow_557_470"/><feBlend in="SourceGraphic" in2="effect1_dropShadow_557_470" mode="normal" result="shape"/></filter><filter id="filter15_d_557_470" width="30.305" height="54.664" x="399.217" y="67.43" color-interpolation-filters="sRGB" filterUnits="userSpaceOnUse"><feFlood flood-opacity="0" result="BackgroundImageFix"/><feColorMatrix in="SourceAlpha" result="hardAlpha" type="matrix" values="0 0 0 0 0 0 0 0 0 0 0 0 0 0 0 0 0 0 127 0"/><feOffset dx="3" dy="6"/><feColorMatrix type="matrix" values="0 0 0 0 0.176471 0 0 0 0 0.494118 0 0 0 0 0.803922 0 0 0 1 0"/><feBlend in2="BackgroundImageFix" mode="normal" result="effect1_dropShadow_557_470"/><feBlend in="SourceGraphic" in2="effect1_dropShadow_557_470" mode="normal" result="shape"/></filter><filter id="filter16_d_557_470" width="13.594" height="44.419" x="438.213" y="93.042" color-interpolation-filters="sRGB" filterUnits="userSpaceOnUse"><feFlood flood-opacity="0" result="BackgroundImageFix"/><feColorMatrix in="SourceAlpha" result="hardAlpha" type="matrix" values="0 0 0 0 0 0 0 0 0 0 0 0 0 0 0 0 0 0 127 0"/><feOffset dx="3" dy="6"/><feColorMatrix type="matrix" values="0 0 0 0 0.176471 0 0 0 0 0.494118 0 0 0 0 0.803922 0 0 0 1 0"/><feBlend in2="BackgroundImageFix" mode="normal" result="effect1_dropShadow_557_470"/><feBlend in="SourceGraphic" in2="effect1_dropShadow_557_470" mode="normal" result="shape"/></filter><linearGradient id="paint0_linear_557_470" x1="496.413" x2="496.413" y1="406.964" y2="406.964" gradientUnits="userSpaceOnUse"><stop stop-color="#F9CC27"/><stop offset="1" stop-color="#E9AE18"/></linearGradient><linearGradient id="paint1_linear_557_470" x1="496.413" x2="496.413" y1="394.872" y2="394.872" gradientUnits="userSpaceOnUse"><stop stop-color="#F6B82A"/><stop offset="1" stop-color="#DC8816"/></linearGradient><linearGradient id="paint2_linear_557_470" x1="496.422" x2="496.422" y1="392.499" y2="392.499" gradientUnits="userSpaceOnUse"><stop stop-color="#F9CC27"/><stop offset="1" stop-color="#E9AE18"/></linearGradient><linearGradient id="paint3_linear_557_470" x1="470.153" x2="470.153" y1="420.624" y2="420.624" gradientUnits="userSpaceOnUse"><stop stop-color="#72CE69"/><stop offset="1" stop-color="#4BAF41"/></linearGradient><linearGradient id="paint4_linear_557_470" x1="470.153" x2="470.153" y1="408.532" y2="408.532" gradientUnits="userSpaceOnUse"><stop stop-color="#5DBA53"/><stop offset="1" stop-color="#3DA433"/></linearGradient><linearGradient id="paint5_linear_557_470" x1="470.162" x2="470.162" y1="406.159" y2="406.159" gradientUnits="userSpaceOnUse"><stop stop-color="#72CE69"/><stop offset="1" stop-color="#4BAF41"/></linearGradient><linearGradient id="paint6_linear_557_470" x1="281.5" x2="281.5" y1="563" y2="865" gradientUnits="userSpaceOnUse"><stop stop-color="#fff"/><stop offset="1" stop-color="#fff" stop-opacity="0"/></linearGradient><clipPath id="clip0_557_470"><rect width="22" height="22" fill="#fff" transform="translate(640.969 352.293)"/></clipPath><clipPath id="clip1_557_470"><rect width="22" height="22" fill="#fff" transform="translate(576.154 430.546)"/></clipPath></defs></svg>