<svg xmlns="http://www.w3.org/2000/svg" font-family="Inter, system-ui, sans-serif" viewBox="0 0 900 480"><defs><linearGradient id="guideBg" x1="0%" x2="100%" y1="0%" y2="100%"><stop offset="0%" style="stop-color:#dbeafe;stop-opacity:1"/><stop offset="100%" style="stop-color:#bfdbfe;stop-opacity:1"/></linearGradient><linearGradient id="sensorBg" x1="0%" x2="100%" y1="0%" y2="100%"><stop offset="0%" style="stop-color:#fce7f3;stop-opacity:1"/><stop offset="100%" style="stop-color:#fbcfe8;stop-opacity:1"/></linearGradient><linearGradient id="agentBg" x1="0%" x2="100%" y1="0%" y2="100%"><stop offset="0%" style="stop-color:#f0fdf4;stop-opacity:1"/><stop offset="100%" style="stop-color:#dcfce7;stop-opacity:1"/></linearGradient><linearGradient id="outputBg" x1="0%" x2="100%" y1="0%" y2="100%"><stop offset="0%" style="stop-color:#fefce8;stop-opacity:1"/><stop offset="100%" style="stop-color:#fef9c3;stop-opacity:1"/></linearGradient><marker id="arrowBlue" markerHeight="6" markerWidth="8" orient="auto" refX="7" refY="3"><polygon fill="#3b82f6" points="0 0 8 3 0 6"/></marker><marker id="arrowGreen" markerHeight="6" markerWidth="8" orient="auto" refX="7" refY="3"><polygon fill="#16a34a" points="0 0 8 3 0 6"/></marker><filter id="shadow" width="108%" height="112%" x="-4%" y="-4%"><feDropShadow dx="0" dy="2" flood-opacity=".1" stdDeviation="3"/></filter></defs><rect width="900" height="480" fill="#f8fafc" rx="12"/><text x="450" y="36" fill="#1e293b" font-size="18" font-weight="700" text-anchor="middle">Harness Architecture: Guides + Sensors</text><text x="450" y="56" fill="#64748b" font-size="12" text-anchor="middle">Agent = Model + Harness (Feedforward + Feedback Controls)</text><rect width="260" height="320" x="30" y="80" fill="url(#guideBg)" stroke="#93c5fd" stroke-width="1.5" filter="url(#shadow)" rx="12"/><text x="160" y="108" fill="#1d4ed8" font-size="14" font-weight="700" text-anchor="middle">GUIDES</text><text x="160" y="124" fill="#3b82f6" font-size="10" text-anchor="middle">Feedforward Controls</text><text x="160" y="140" fill="#3b82f6" font-size="10" text-anchor="middle">Steer BEFORE generation</text><rect width="220" height="36" x="50" y="156" fill="#fff" stroke="#93c5fd" stroke-width="1" rx="6"/><text x="160" y="172" fill="#1e40af" font-size="11" text-anchor="middle">CLAUDE.md / AGENTS.md</text><text x="160" y="185" fill="#64748b" font-size="9" text-anchor="middle">Project instructions &amp; conventions</text><rect width="220" height="36" x="50" y="200" fill="#fff" stroke="#93c5fd" stroke-width="1" rx="6"/><text x="160" y="216" fill="#1e40af" font-size="11" text-anchor="middle">Specifications &amp; Constraints</text><text x="160" y="229" fill="#64748b" font-size="9" text-anchor="middle">Architecture rules, dependency layers</text><rect width="220" height="36" x="50" y="244" fill="#fff" stroke="#93c5fd" stroke-width="1" rx="6"/><text x="160" y="260" fill="#1e40af" font-size="11" text-anchor="middle">Skill Definitions</text><text x="160" y="273" fill="#64748b" font-size="9" text-anchor="middle">Task-specific workflows &amp; templates</text><rect width="220" height="36" x="50" y="288" fill="#fff" stroke="#93c5fd" stroke-width="1" rx="6"/><text x="160" y="304" fill="#1e40af" font-size="11" text-anchor="middle">Context Engineering</text><text x="160" y="317" fill="#64748b" font-size="9" text-anchor="middle">Static + dynamic context loading</text><rect width="220" height="48" x="50" y="338" fill="#eff6ff" stroke="#60a5fa" stroke-dasharray="4" stroke-width="1" rx="6"/><text x="160" y="358" fill="#1d4ed8" font-size="10" font-weight="600" text-anchor="middle">Goal: Increase probability</text><text x="160" y="374" fill="#1d4ed8" font-size="10" font-weight="600" text-anchor="middle">of good first attempt</text><rect width="220" height="220" x="340" y="130" fill="url(#agentBg)" stroke="#86efac" stroke-width="2" filter="url(#shadow)" rx="16"/><text x="450" y="168" fill="#166534" font-size="16" font-weight="700" text-anchor="middle">AI Agent</text><rect width="160" height="50" x="370" y="186" fill="#fff" stroke="#4ade80" stroke-width="1.5" rx="8"/><text x="450" y="208" fill="#166534" font-size="13" font-weight="600" text-anchor="middle">LLM Model</text><text x="450" y="224" fill="#64748b" font-size="9" text-anchor="middle">Claude, GPT, Gemini...</text><rect width="160" height="40" x="370" y="248" fill="#fff" stroke="#4ade80" stroke-width="1.5" rx="8"/><text x="450" y="266" fill="#166534" font-size="11" font-weight="500" text-anchor="middle">Tool Access</text><text x="450" y="280" fill="#64748b" font-size="9" text-anchor="middle">Read, Edit, Bash, Search...</text><rect width="160" height="36" x="370" y="298" fill="#dcfce7" stroke="#4ade80" stroke-width="1" rx="8"/><text x="450" y="316" fill="#166534" font-size="11" font-weight="500" text-anchor="middle">Generates Output</text><rect width="260" height="320" x="610" y="80" fill="url(#sensorBg)" stroke="#f9a8d4" stroke-width="1.5" filter="url(#shadow)" rx="12"/><text x="740" y="108" fill="#be185d" font-size="14" font-weight="700" text-anchor="middle">SENSORS</text><text x="740" y="124" fill="#e11d48" font-size="10" text-anchor="middle">Feedback Controls</text><text x="740" y="140" fill="#e11d48" font-size="10" text-anchor="middle">Observe AFTER generation</text><rect width="220" height="36" x="630" y="156" fill="#fff" stroke="#f9a8d4" stroke-width="1" rx="6"/><text x="740" y="172" fill="#9f1239" font-size="11" text-anchor="middle">Linters &amp; Type Checkers</text><text x="740" y="185" fill="#64748b" font-size="9" text-anchor="middle">Deterministic, milliseconds</text><rect width="220" height="36" x="630" y="200" fill="#fff" stroke="#f9a8d4" stroke-width="1" rx="6"/><text x="740" y="216" fill="#9f1239" font-size="11" text-anchor="middle">Test Suites</text><text x="740" y="229" fill="#64748b" font-size="9" text-anchor="middle">Behavioral verification</text><rect width="220" height="36" x="630" y="244" fill="#fff" stroke="#f9a8d4" stroke-width="1" rx="6"/><text x="740" y="260" fill="#9f1239" font-size="11" text-anchor="middle">CI/CD Pipeline Gates</text><text x="740" y="273" fill="#64748b" font-size="9" text-anchor="middle">Integration-level validation</text><rect width="220" height="36" x="630" y="288" fill="#fff" stroke="#f9a8d4" stroke-width="1" rx="6"/><text x="740" y="304" fill="#9f1239" font-size="11" text-anchor="middle">LLM-as-Judge</text><text x="740" y="317" fill="#64748b" font-size="9" text-anchor="middle">Semantic analysis, non-deterministic</text><rect width="220" height="48" x="630" y="338" fill="#fff1f2" stroke="#fb7185" stroke-dasharray="4" stroke-width="1" rx="6"/><text x="740" y="358" fill="#be185d" font-size="10" font-weight="600" text-anchor="middle">Goal: Enable self-correction</text><text x="740" y="374" fill="#be185d" font-size="10" font-weight="600" text-anchor="middle">and error detection</text><line x1="290" x2="336" y1="240" y2="240" stroke="#3b82f6" stroke-width="2.5" marker-end="url(#arrowBlue)"/><text x="312" y="232" fill="#3b82f6" font-size="10" font-weight="600" text-anchor="middle">steer</text><line x1="560" x2="606" y1="240" y2="240" stroke="#16a34a" stroke-width="2.5" marker-end="url(#arrowGreen)"/><text x="584" y="232" fill="#16a34a" font-size="10" font-weight="600" text-anchor="middle">validate</text><path fill="none" stroke="#e11d48" stroke-dasharray="8 4" stroke-width="2.5" d="M 740 400 C 740 456 600 456 450 456 C 300 456 380 456 380 360"/><polygon fill="#e11d48" points="373 366 380 348 387 366"/><text x="560" y="470" fill="#e11d48" font-size="10" font-weight="600" text-anchor="middle">Feedback Loop: Error signals trigger self-correction</text></svg>