<svg xmlns="http://www.w3.org/2000/svg" fill="none" viewBox="0 0 960 500"><defs><linearGradient id="bgR" x1="0" x2="960" y1="0" y2="500" gradientUnits="userSpaceOnUse"><stop offset="0%" stop-color="#f8fafc"/><stop offset="100%" stop-color="#f1f5f9"/></linearGradient><linearGradient id="grayG" x1="0" x2="0" y1="0" y2="1"><stop offset="0%" stop-color="#94a3b8"/><stop offset="100%" stop-color="#64748b"/></linearGradient><linearGradient id="skyG" x1="0" x2="0" y1="0" y2="1"><stop offset="0%" stop-color="#38bdf8"/><stop offset="100%" stop-color="#0284c7"/></linearGradient><linearGradient id="blueG" x1="0" x2="0" y1="0" y2="1"><stop offset="0%" stop-color="#3b82f6"/><stop offset="100%" stop-color="#2563eb"/></linearGradient><linearGradient id="violetG" x1="0" x2="0" y1="0" y2="1"><stop offset="0%" stop-color="#8b5cf6"/><stop offset="100%" stop-color="#7c3aed"/></linearGradient><linearGradient id="emeraldG" x1="0" x2="0" y1="0" y2="1"><stop offset="0%" stop-color="#10b981"/><stop offset="100%" stop-color="#059669"/></linearGradient><filter id="sR" width="106%" height="114%" x="-3%" y="-5%"><feDropShadow dx="0" dy="2" flood-color="#0f172a" flood-opacity=".08" stdDeviation="3"/></filter><filter id="sRsm" width="104%" height="112%" x="-2%" y="-4%"><feDropShadow dx="0" dy="1" flood-color="#0f172a" flood-opacity=".05" stdDeviation="2"/></filter></defs><rect width="960" height="500" fill="url(#bgR)" rx="12"/><rect width="960" height="500" fill="none" stroke="#e2e8f0" stroke-width="1" rx="12"/><text x="480" y="36" fill="#0f172a" font-family="Inter, system-ui, sans-serif" font-size="18" font-weight="700" text-anchor="middle">The Evolution of RAG (Retrieval-Augmented Generation)</text><text x="480" y="54" fill="#64748b" font-family="Inter, system-ui, sans-serif" font-size="11" text-anchor="middle">From static retrieval pipelines to autonomous knowledge agents</text><line x1="60" x2="900" y1="100" y2="100" stroke="#cbd5e1" stroke-width="2"/><circle cx="130" cy="100" r="5" fill="#94a3b8"/><text x="130" y="88" fill="#64748b" font-family="Inter, system-ui, sans-serif" font-size="10" font-weight="600" text-anchor="middle">2023</text><circle cx="310" cy="100" r="5" fill="#0284c7"/><text x="310" y="88" fill="#64748b" font-family="Inter, system-ui, sans-serif" font-size="10" font-weight="600" text-anchor="middle">2024</text><circle cx="500" cy="100" r="5" fill="#2563eb"/><text x="500" y="88" fill="#64748b" font-family="Inter, system-ui, sans-serif" font-size="10" font-weight="600" text-anchor="middle">2024-25</text><circle cx="680" cy="100" r="5" fill="#7c3aed"/><text x="680" y="88" fill="#64748b" font-family="Inter, system-ui, sans-serif" font-size="10" font-weight="600" text-anchor="middle">2025</text><circle cx="860" cy="100" r="5" fill="#059669"/><text x="860" y="88" fill="#64748b" font-family="Inter, system-ui, sans-serif" font-size="10" font-weight="600" text-anchor="middle">2025-26</text><polygon fill="#cbd5e1" points="905 100 895 94 895 106"/><line x1="130" x2="130" y1="105" y2="135" stroke="#94a3b8" stroke-dasharray="4 3" stroke-width="1.5"/><line x1="310" x2="310" y1="105" y2="135" stroke="#0284c7" stroke-dasharray="4 3" stroke-width="1.5"/><line x1="500" x2="500" y1="105" y2="135" stroke="#2563eb" stroke-dasharray="4 3" stroke-width="1.5"/><line x1="680" x2="680" y1="105" y2="135" stroke="#7c3aed" stroke-dasharray="4 3" stroke-width="1.5"/><line x1="860" x2="860" y1="105" y2="135" stroke="#059669" stroke-dasharray="4 3" stroke-width="1.5"/><rect width="180" height="330" x="40" y="137" fill="#fff" stroke="#94a3b8" stroke-width="1.5" filter="url(#sR)" rx="10"/><rect width="180" height="36" x="40" y="137" fill="url(#grayG)" rx="10"/><rect width="180" height="13" x="40" y="160" fill="url(#grayG)"/><text x="130" y="161" fill="#fff" font-family="Inter, system-ui, sans-serif" font-size="12" font-weight="700" text-anchor="middle">Naive RAG</text><rect width="44" height="16" x="52" y="182" fill="#f1f5f9" stroke="#cbd5e1" stroke-width=".5" rx="8"/><text x="74" y="193" fill="#64748b" font-family="Inter, system-ui, sans-serif" font-size="7.5" font-weight="600" text-anchor="middle">Gen 1</text><rect width="148" height="24" x="56" y="208" fill="#f8fafc" stroke="#cbd5e1" stroke-width="1" rx="5"/><text x="130" y="224" fill="#475569" font-family="Inter, system-ui, sans-serif" font-size="8.5" text-anchor="middle">Embed Documents</text><text x="130" y="244" fill="#94a3b8" font-family="Inter, system-ui, sans-serif" font-size="10" text-anchor="middle">|</text><rect width="148" height="24" x="56" y="250" fill="#f8fafc" stroke="#cbd5e1" stroke-width="1" rx="5"/><text x="130" y="266" fill="#475569" font-family="Inter, system-ui, sans-serif" font-size="8.5" text-anchor="middle">Retrieve Top-K Chunks</text><text x="130" y="286" fill="#94a3b8" font-family="Inter, system-ui, sans-serif" font-size="10" text-anchor="middle">|</text><rect width="148" height="24" x="56" y="292" fill="#f8fafc" stroke="#cbd5e1" stroke-width="1" rx="5"/><text x="130" y="308" fill="#475569" font-family="Inter, system-ui, sans-serif" font-size="8.5" text-anchor="middle">Concatenate into Prompt</text><text x="130" y="328" fill="#94a3b8" font-family="Inter, system-ui, sans-serif" font-size="10" text-anchor="middle">|</text><rect width="148" height="24" x="56" y="334" fill="#f8fafc" stroke="#cbd5e1" stroke-width="1" rx="5"/><text x="130" y="350" fill="#475569" font-family="Inter, system-ui, sans-serif" font-size="8.5" text-anchor="middle">Generate Response</text><line x1="56" x2="204" y1="372" y2="372" stroke="#e2e8f0" stroke-width=".5"/><text x="130" y="389" fill="#94a3b8" font-family="Inter, system-ui, sans-serif" font-size="8" font-weight="600" text-anchor="middle">LIMITATIONS</text><text x="60" y="406" fill="#94a3b8" font-family="Inter, system-ui, sans-serif" font-size="7.5">No query understanding</text><text x="60" y="420" fill="#94a3b8" font-family="Inter, system-ui, sans-serif" font-size="7.5">No relevance filtering</text><text x="60" y="434" fill="#94a3b8" font-family="Inter, system-ui, sans-serif" font-size="7.5">Fixed pipeline, single-shot</text><text x="60" y="448" fill="#94a3b8" font-family="Inter, system-ui, sans-serif" font-size="7.5">Context window overflow</text><rect width="170" height="330" x="230" y="137" fill="#fff" stroke="#0284c7" stroke-width="1.5" filter="url(#sR)" rx="10"/><rect width="170" height="36" x="230" y="137" fill="url(#skyG)" rx="10"/><rect width="170" height="13" x="230" y="160" fill="url(#skyG)"/><text x="315" y="161" fill="#fff" font-family="Inter, system-ui, sans-serif" font-size="12" font-weight="700" text-anchor="middle">Advanced RAG</text><rect width="44" height="16" x="242" y="182" fill="#e0f2fe" stroke="#7dd3fc" stroke-width=".5" rx="8"/><text x="264" y="193" fill="#0369a1" font-family="Inter, system-ui, sans-serif" font-size="7.5" font-weight="600" text-anchor="middle">Gen 2</text><text x="315" y="214" fill="#0284c7" font-family="Inter, system-ui, sans-serif" font-size="8.5" font-weight="600" text-anchor="middle">Key Improvements</text><rect width="146" height="22" x="242" y="224" fill="#f0f9ff" stroke="#bae6fd" stroke-width=".8" rx="4"/><text x="315" y="239" fill="#0369a1" font-family="Inter, system-ui, sans-serif" font-size="8" text-anchor="middle">Query Rewriting</text><rect width="146" height="22" x="242" y="252" fill="#f0f9ff" stroke="#bae6fd" stroke-width=".8" rx="4"/><text x="315" y="267" fill="#0369a1" font-family="Inter, system-ui, sans-serif" font-size="8" text-anchor="middle">Hybrid Search (BM25 + Vector)</text><rect width="146" height="22" x="242" y="280" fill="#f0f9ff" stroke="#bae6fd" stroke-width=".8" rx="4"/><text x="315" y="295" fill="#0369a1" font-family="Inter, system-ui, sans-serif" font-size="8" text-anchor="middle">Re-ranking (Cross-Encoder)</text><rect width="146" height="22" x="242" y="308" fill="#f0f9ff" stroke="#bae6fd" stroke-width=".8" rx="4"/><text x="315" y="323" fill="#0369a1" font-family="Inter, system-ui, sans-serif" font-size="8" text-anchor="middle">Chunk Optimization</text><rect width="146" height="22" x="242" y="336" fill="#f0f9ff" stroke="#bae6fd" stroke-width=".8" rx="4"/><text x="315" y="351" fill="#0369a1" font-family="Inter, system-ui, sans-serif" font-size="8" text-anchor="middle">Metadata Filtering</text><line x1="242" x2="388" y1="372" y2="372" stroke="#e2e8f0" stroke-width=".5"/><text x="315" y="389" fill="#0284c7" font-family="Inter, system-ui, sans-serif" font-size="8" font-weight="600" text-anchor="middle">STILL LIMITED</text><text x="248" y="406" fill="#64748b" font-family="Inter, system-ui, sans-serif" font-size="7.5">Better retrieval quality</text><text x="248" y="420" fill="#64748b" font-family="Inter, system-ui, sans-serif" font-size="7.5">but still a fixed pipeline</text><text x="248" y="434" fill="#64748b" font-family="Inter, system-ui, sans-serif" font-size="7.5">No adaptive decisions</text><text x="248" y="448" fill="#64748b" font-family="Inter, system-ui, sans-serif" font-size="7.5">Single retrieval pass</text><rect width="170" height="330" x="410" y="137" fill="#fff" stroke="#2563eb" stroke-width="1.5" filter="url(#sR)" rx="10"/><rect width="170" height="36" x="410" y="137" fill="url(#blueG)" rx="10"/><rect width="170" height="13" x="410" y="160" fill="url(#blueG)"/><text x="495" y="161" fill="#fff" font-family="Inter, system-ui, sans-serif" font-size="12" font-weight="700" text-anchor="middle">Modular RAG</text><rect width="44" height="16" x="422" y="182" fill="#eff6ff" stroke="#93c5fd" stroke-width=".5" rx="8"/><text x="444" y="193" fill="#1d4ed8" font-family="Inter, system-ui, sans-serif" font-size="7.5" font-weight="600" text-anchor="middle">Gen 3</text><text x="495" y="214" fill="#2563eb" font-family="Inter, system-ui, sans-serif" font-size="8.5" font-weight="600" text-anchor="middle">Pluggable Modules</text><rect width="68" height="30" x="422" y="224" fill="#eff6ff" stroke="#93c5fd" stroke-width=".8" rx="5"/><text x="456" y="242" fill="#1d4ed8" font-family="Inter, system-ui, sans-serif" font-size="7.5" font-weight="500" text-anchor="middle">Retriever</text><rect width="68" height="30" x="498" y="224" fill="#eff6ff" stroke="#93c5fd" stroke-width=".8" rx="5"/><text x="532" y="242" fill="#1d4ed8" font-family="Inter, system-ui, sans-serif" font-size="7.5" font-weight="500" text-anchor="middle">Rewriter</text><rect width="68" height="30" x="422" y="262" fill="#eff6ff" stroke="#93c5fd" stroke-width=".8" rx="5"/><text x="456" y="280" fill="#1d4ed8" font-family="Inter, system-ui, sans-serif" font-size="7.5" font-weight="500" text-anchor="middle">Filter</text><rect width="68" height="30" x="498" y="262" fill="#eff6ff" stroke="#93c5fd" stroke-width=".8" rx="5"/><text x="532" y="280" fill="#1d4ed8" font-family="Inter, system-ui, sans-serif" font-size="7.5" font-weight="500" text-anchor="middle">Ranker</text><rect width="68" height="30" x="422" y="300" fill="#eff6ff" stroke="#93c5fd" stroke-width=".8" rx="5"/><text x="456" y="318" fill="#1d4ed8" font-family="Inter, system-ui, sans-serif" font-size="7.5" font-weight="500" text-anchor="middle">Generator</text><rect width="68" height="30" x="498" y="300" fill="#eff6ff" stroke="#93c5fd" stroke-width=".8" rx="5"/><text x="532" y="318" fill="#1d4ed8" font-family="Inter, system-ui, sans-serif" font-size="7.5" font-weight="500" text-anchor="middle">Validator</text><text x="495" y="348" fill="#3b82f6" font-family="Inter, system-ui, sans-serif" font-size="8" text-anchor="middle">Swap / compose per use case</text><line x1="422" x2="568" y1="362" y2="362" stroke="#e2e8f0" stroke-width=".5"/><text x="495" y="379" fill="#2563eb" font-family="Inter, system-ui, sans-serif" font-size="8" font-weight="600" text-anchor="middle">BREAKTHROUGH</text><text x="428" y="396" fill="#475569" font-family="Inter, system-ui, sans-serif" font-size="7.5">Composable architecture</text><text x="428" y="410" fill="#475569" font-family="Inter, system-ui, sans-serif" font-size="7.5">Per-task customization</text><text x="428" y="424" fill="#475569" font-family="Inter, system-ui, sans-serif" font-size="7.5">But still pre-defined flows</text><text x="428" y="438" fill="#475569" font-family="Inter, system-ui, sans-serif" font-size="7.5">No runtime adaptation</text><rect width="170" height="330" x="590" y="137" fill="#fff" stroke="#7c3aed" stroke-width="1.5" filter="url(#sR)" rx="10"/><rect width="170" height="36" x="590" y="137" fill="url(#violetG)" rx="10"/><rect width="170" height="13" x="590" y="160" fill="url(#violetG)"/><text x="675" y="161" fill="#fff" font-family="Inter, system-ui, sans-serif" font-size="12" font-weight="700" text-anchor="middle">Graph RAG</text><rect width="44" height="16" x="602" y="182" fill="#f5f3ff" stroke="#c4b5fd" stroke-width=".5" rx="8"/><text x="624" y="193" fill="#6d28d9" font-family="Inter, system-ui, sans-serif" font-size="7.5" font-weight="600" text-anchor="middle">Gen 4</text><text x="675" y="214" fill="#7c3aed" font-family="Inter, system-ui, sans-serif" font-size="8.5" font-weight="600" text-anchor="middle">Knowledge Graph + Retrieval</text><circle cx="640" cy="248" r="12" fill="#f5f3ff" stroke="#a78bfa" stroke-width="1.5"/><text x="640" y="252" fill="#7c3aed" font-family="Inter, system-ui, sans-serif" font-size="6" font-weight="600" text-anchor="middle">E1</text><circle cx="710" cy="232" r="12" fill="#f5f3ff" stroke="#a78bfa" stroke-width="1.5"/><text x="710" y="236" fill="#7c3aed" font-family="Inter, system-ui, sans-serif" font-size="6" font-weight="600" text-anchor="middle">E2</text><circle cx="710" cy="270" r="12" fill="#f5f3ff" stroke="#a78bfa" stroke-width="1.5"/><text x="710" y="274" fill="#7c3aed" font-family="Inter, system-ui, sans-serif" font-size="6" font-weight="600" text-anchor="middle">E3</text><circle cx="660" cy="290" r="12" fill="#f5f3ff" stroke="#a78bfa" stroke-width="1.5"/><text x="660" y="294" fill="#7c3aed" font-family="Inter, system-ui, sans-serif" font-size="6" font-weight="600" text-anchor="middle">E4</text><line x1="652" x2="698" y1="244" y2="236" stroke="#c4b5fd" stroke-width="1"/><line x1="652" x2="698" y1="256" y2="266" stroke="#c4b5fd" stroke-width="1"/><line x1="698" x2="672" y1="270" y2="286" stroke="#c4b5fd" stroke-width="1"/><line x1="648" x2="652" y1="260" y2="282" stroke="#c4b5fd" stroke-width="1"/><rect width="146" height="20" x="602" y="312" fill="#faf5ff" stroke="#ddd6fe" stroke-width=".8" rx="4"/><text x="675" y="326" fill="#6d28d9" font-family="Inter, system-ui, sans-serif" font-size="7.5" text-anchor="middle">Entity Relationship Traversal</text><rect width="146" height="20" x="602" y="338" fill="#faf5ff" stroke="#ddd6fe" stroke-width=".8" rx="4"/><text x="675" y="352" fill="#6d28d9" font-family="Inter, system-ui, sans-serif" font-size="7.5" text-anchor="middle">Multi-hop Question Answering</text><line x1="602" x2="748" y1="372" y2="372" stroke="#e2e8f0" stroke-width=".5"/><text x="675" y="389" fill="#7c3aed" font-family="Inter, system-ui, sans-serif" font-size="8" font-weight="600" text-anchor="middle">STRUCTURED REASONING</text><text x="608" y="406" fill="#475569" font-family="Inter, system-ui, sans-serif" font-size="7.5">Structured knowledge</text><text x="608" y="420" fill="#475569" font-family="Inter, system-ui, sans-serif" font-size="7.5">Relationship-aware retrieval</text><text x="608" y="434" fill="#475569" font-family="Inter, system-ui, sans-serif" font-size="7.5">Microsoft GraphRAG (2025)</text><text x="608" y="448" fill="#475569" font-family="Inter, system-ui, sans-serif" font-size="7.5">Great for complex domains</text><rect width="170" height="330" x="770" y="137" fill="#fff" stroke="#059669" stroke-width="2" filter="url(#sR)" rx="10"/><rect width="170" height="36" x="770" y="137" fill="url(#emeraldG)" rx="10"/><rect width="170" height="13" x="770" y="160" fill="url(#emeraldG)"/><text x="855" y="161" fill="#fff" font-family="Inter, system-ui, sans-serif" font-size="12" font-weight="700" text-anchor="middle">Agentic RAG</text><rect width="44" height="16" x="782" y="182" fill="#ecfdf5" stroke="#6ee7b7" stroke-width=".5" rx="8"/><text x="804" y="193" fill="#047857" font-family="Inter, system-ui, sans-serif" font-size="7.5" font-weight="600" text-anchor="middle">Gen 5</text><rect width="54" height="16" x="876" y="182" fill="#059669" rx="8"/><text x="903" y="193" fill="#fff" font-family="Inter, system-ui, sans-serif" font-size="7.5" font-weight="700" text-anchor="middle">CURRENT</text><text x="855" y="214" fill="#059669" font-family="Inter, system-ui, sans-serif" font-size="8.5" font-weight="600" text-anchor="middle">Autonomous Agent Loop</text><rect width="146" height="20" x="782" y="224" fill="#ecfdf5" stroke="#6ee7b7" stroke-width=".8" rx="4"/><text x="855" y="238" fill="#047857" font-family="Inter, system-ui, sans-serif" font-size="7.5" font-weight="500" text-anchor="middle">Plan retrieval strategy</text><rect width="146" height="20" x="782" y="250" fill="#ecfdf5" stroke="#6ee7b7" stroke-width=".8" rx="4"/><text x="855" y="264" fill="#047857" font-family="Inter, system-ui, sans-serif" font-size="7.5" font-weight="500" text-anchor="middle">Choose tool (keyword / semantic)</text><rect width="146" height="20" x="782" y="276" fill="#ecfdf5" stroke="#6ee7b7" stroke-width=".8" rx="4"/><text x="855" y="290" fill="#047857" font-family="Inter, system-ui, sans-serif" font-size="7.5" font-weight="500" text-anchor="middle">Evaluate result quality</text><rect width="146" height="20" x="782" y="302" fill="#ecfdf5" stroke="#6ee7b7" stroke-width=".8" rx="4"/><text x="855" y="316" fill="#047857" font-family="Inter, system-ui, sans-serif" font-size="7.5" font-weight="500" text-anchor="middle">Re-search if insufficient</text><rect width="146" height="20" x="782" y="328" fill="#ecfdf5" stroke="#6ee7b7" stroke-width=".8" rx="4"/><text x="855" y="342" fill="#047857" font-family="Inter, system-ui, sans-serif" font-size="7.5" font-weight="500" text-anchor="middle">Synthesize grounded answer</text><path fill="none" stroke="#10b981" stroke-width="1.5" marker-end="url(#arrLoop)" d="M 922 238 C 932 238 932 338 922 338"/><text x="934" y="292" fill="#10b981" font-family="Inter, system-ui, sans-serif" font-size="6.5" font-weight="600" text-anchor="middle" transform="rotate(90, 934, 292)">LOOP</text><line x1="782" x2="928" y1="362" y2="362" stroke="#e2e8f0" stroke-width=".5"/><text x="855" y="379" fill="#059669" font-family="Inter, system-ui, sans-serif" font-size="8" font-weight="600" text-anchor="middle">KEY CAPABILITY</text><text x="788" y="396" fill="#475569" font-family="Inter, system-ui, sans-serif" font-size="7.5">Model controls retrieval</text><text x="788" y="410" fill="#475569" font-family="Inter, system-ui, sans-serif" font-size="7.5">Self-correcting searches</text><text x="788" y="424" fill="#475569" font-family="Inter, system-ui, sans-serif" font-size="7.5">Multi-agent collaboration</text><text x="788" y="438" fill="#475569" font-family="Inter, system-ui, sans-serif" font-size="7.5">A-RAG framework (2026)</text><rect width="320" height="20" x="320" y="474" fill="#f1f5f9" stroke="#cbd5e1" stroke-width=".5" rx="10"/><text x="480" y="488" fill="#64748b" font-family="Inter, system-ui, sans-serif" font-size="9" font-weight="600" text-anchor="middle">Static Pipeline ──────&gt; Autonomous Agent</text><defs><marker id="arrLoop" markerHeight="5" markerWidth="6" orient="auto" refX="5" refY="2.5"><path fill="#10b981" d="M 0 0 L 6 2.5 L 0 5 Z"/></marker></defs></svg>